<svg xmlns="http://www.w3.org/2000/svg" width="256" height="256"><path fill-opacity=".016" d="M0 128.004v128.004l128.25-.254 128.25-.254.254-127.75L257.008 0H0v128.004m.485.496c0 70.4.119 99.053.265 63.672.146-35.38.146-92.98 0-128C.604 29.153.485 58.1.485 128.5" fill="#1976D2" fill-rule="evenodd"/><path fill-opacity=".51" d="M0 128.011v59.997l128.25-.254 128.25-.254.258-60 .257-60-128.507.258L0 68.015v59.996M.47 128c0 33.275.126 46.888.279 30.25.154-16.637.154-43.862 0-60.5C.596 81.113.47 94.725.47 128m144.867-42.75c-1.178 1.886-1.291 3.84-.183 3.155.539-.333.728-.856.421-1.163-.307-.307-.056-1.162.556-1.9.613-.738.86-1.342.55-1.342-.309 0-.914.563-1.344 1.25m-26.524.433c.721.289 1.584.253 1.916-.079.332-.332-.258-.568-1.312-.525-1.165.048-1.402.285-.604.604M158.5 86c-.34.55-.141 1 .441 1S160 86.55 160 86s-.198-1-.441-1-.719.45-1.059 1m-49.5.941c0 .518.375 1.173.833 1.456.459.283.834-.14.834-.941 0-.801-.375-1.456-.834-1.456-.458 0-.833.423-.833.941m3.813.742c.721.289 1.584.253 1.916-.079.332-.332-.258-.568-1.312-.525-1.165.048-1.402.285-.604.604M148 89.09c0 .566-.52.707-1.155.315-.691-.428-.883-.276-.48.377.718 1.162 4.635 1.257 4.635.112 0-.374-.675-.939-1.5-1.256-.825-.316-1.5-.113-1.5.452m-43.48 1.272c-2.243 1.64-2.97 4.748-.927 3.964.767-.295 1.16-.917.872-1.383-.289-.467.727-1.526 2.255-2.355 1.622-.88 2.131-1.525 1.221-1.548-.857-.022-2.397.573-3.421 1.322m6.424 4.861C108.106 98.33 106.939 103 109 103c.55 0 1-.675 1-1.5s.787-1.525 1.75-1.555c.963-.031 2.848-1.442 4.189-3.137 2.435-3.076 2.436-3.079.164-1.863-2.73 1.461-3.878.693-2.123-1.421 2.424-2.92-.114-1.5-3.036 1.699m29.646-1.858c.612 1.603.374 1.761-1.689 1.122l-2.401-.743 2.641 2.479c1.452 1.364 3.393 2.768 4.313 3.121.92.353 1.393 1.095 1.05 1.649-.342.554-.198 1.007.32 1.007.519 0 1.168-.862 1.444-1.916.337-1.289-.626-3.006-2.945-5.25-2.212-2.14-3.191-2.666-2.733-1.469M151 93c.825.533 1.95.969 2.5.969s.325-.436-.5-.969c-.825-.533-1.95-.969-2.5-.969s-.325.436.5.969m-32.25 3.08c-1.124.655-1.722 2.165-1.671 4.22l.079 3.2 1.055-3c.581-1.65 1.5-3.562 2.044-4.25 1.181-1.494.833-1.533-1.507-.17m17.122 2.543c1.391 3.095 1.676 3.306 1.955 1.445.179-1.198-.213-2.828-.873-3.623-2.179-2.625-2.736-1.503-1.082 2.178M152.08 102c1.458 3.061 1.92 3.628 1.92 2.358 0-.537-.7-1.849-1.555-2.917-1.467-1.83-1.487-1.798-.365.559m-52.359.414c-1.538 1.166-1.572 1.429-.25 1.936.841.323 1.529.22 1.529-.229 0-.448 1.013-1.304 2.25-1.901 2.086-1.006 2.105-1.087.25-1.121-1.1-.019-2.801.572-3.779 1.315m9.548 2.279c.973.254 2.323.237 3-.037.677-.274-.119-.481-1.769-.461-1.65.02-2.204.244-1.231.498m39.801.498c.039.72.457 2.209.93 3.309.767 1.786.867 1.712.93-.691.038-1.48-.38-2.969-.93-3.309-.55-.34-.968-.029-.93.691M110 107.819c0 1.208 1.897 2.617 2.591 1.924.251-.252-.229-1.027-1.067-1.723-.95-.789-1.524-.865-1.524-.201m32.872.931c-1.243 1.586-1.208 1.621.378.378.963-.755 1.75-1.543 1.75-1.75 0-.823-.821-.294-2.128 1.372m-46.586 4.75c.008 2.75.202 3.756.432 2.236.229-1.52.223-3.77-.014-5-.237-1.23-.425.014-.418 2.764M139 111.059c0 .582.45.781 1 .441s1-.816 1-1.059-.45-.441-1-.441-1 .477-1 1.059m-35 6.441c0 1.925.36 3.5.799 3.5.44 0 .616-1.575.391-3.5-.225-1.925-.585-3.5-.799-3.5-.215 0-.391 1.575-.391 3.5m45.751.024c-.266 1.388-.093 2.765.383 3.059.476.294.866-.842.866-2.524 0-3.712-.593-3.967-1.249-.535m3.98 2.396c-.435 1.663-.305 2.054.437 1.312.582-.582.86-1.647.62-2.369-.25-.749-.703-.295-1.057 1.057m-59.652 7.663c.048 1.165.285 1.402.604.605.289-.722.253-1.585-.079-1.917-.332-.332-.568.258-.525 1.312m51.952-1.083c0 .55.436 1.675.969 2.5.533.825.969 1.05.969.5s-.436-1.675-.969-2.5c-.533-.825-.969-1.05-.969-.5m-36.698 1.956c0 .801.375 1.224.834.941.458-.283.833-.938.833-1.456s-.375-.941-.833-.941c-.459 0-.834.655-.834 1.456m3.48 4.227c.721.289 1.584.253 1.916-.079.332-.332-.258-.568-1.312-.525-1.165.048-1.402.285-.604.604m8.66.361c-.325.526.336.956 1.468.956 2.415 0 2.658-.556.591-1.349-.807-.31-1.734-.133-2.059.393m-3.66 3.639c.721.289 1.584.253 1.916-.079.332-.332-.258-.568-1.312-.525-1.165.048-1.402.285-.604.604m-22.064 10.786c.422 2.205 3.251 5.776 3.251 4.104 0-.862-2.943-6.573-3.387-6.573-.185 0-.123 1.111.136 2.469m25.822 2.102c-1.988 1.988-1.972 2.311.096 2.007.917-.134 1.777-.994 1.911-1.911.304-2.068-.019-2.084-2.007-.096m73.814 1.6c-4.596 3.459-5.11 4.171-1.812 2.509 2.763-1.392 6.405-4.68 5.184-4.68-.268 0-1.785.977-3.372 2.171M98 154.559c0 .857.457 1.276 1.016.931.559-.346.758-1.047.441-1.559-.857-1.387-1.457-1.129-1.457.628M99.5 159c.34.55.816 1 1.059 1s.441-.45.441-1-.477-1-1.059-1-.781.45-.441 1" fill="#1976D2" fill-rule="evenodd"/><path fill-opacity=".496" d="M0 128v60h10.107c8.475 0 10.016-.237 9.544-1.468-.31-.807-.166-1.714.321-2.014.486-.301 1.153.3 1.481 1.335.537 1.69 1.785 1.895 12.264 2.013 8.358.094 11.891-.223 12.459-1.117.634-.998.796-.998.809.001.008.688.69 1.25 1.515 1.25 1.208 0 1.5-1.556 1.5-8 0-4.4.388-8 .862-8s1.161 2.919 1.526 6.487c.912 8.894 1.251 9.513 5.219 9.513 1.866 0 3.393-.378 3.393-.839 0-.462 1.182-1.378 2.626-2.036 2.385-1.087 2.58-1.019 2.118.745-.484 1.853.125 1.943 13.26 1.959 13.05.015 13.742-.084 13.27-1.889-.366-1.401.25-2.189 2.33-2.98 1.949-.74 2.438-1.316 1.573-1.85-.964-.596-.997-1.452-.141-3.693 1.02-2.672 1.221-2.77 2.399-1.167 1.347 1.833 3.136 2.483 2.065.75-.896-1.449.692-1.169 2.918.515 1.535 1.161 2.222 1.205 3.442.218 1.212-.981 1.37-.977.773.017-.413.688-.323 1.25.201 1.25s1.235.739 1.582 1.641c.504 1.314.351 1.41-.766.483-.768-.637-2.134-.875-3.036-.529-.902.346-2.196.184-2.877-.36-.691-.552-2.119-.639-3.237-.196-1.75.693-1.596.88 1.234 1.498 1.778.389 2.985 1.109 2.681 1.601-.304.492-.934.659-1.399.372-.465-.287-1.035.043-1.268.734-.331.984-.783.959-2.085-.116-1.334-1.101-1.96-1.126-3.163-.128-2.14 1.776-1.854 3.326.5 2.71 1.1-.287 2-.115 2 .384 0 .498.702.906 1.559.906s1.281-.45.941-1c-.34-.55-.141-1 .441-1s1.059.45 1.059 1 .436 1 .969 1c.532 0 .681-.787.33-1.75-.608-1.667-.543-1.667 1.36 0 2.437 2.134 13.331 2.542 13.356.5.012-.958.209-.945.843.054.595.939 3.363 1.252 9.885 1.12 9.604-.194 11.949-.858 10.809-3.062-.387-.749.211-.323 1.329.946 1.66 1.884 2.401 2.111 4.036 1.237 2.661-1.424 7.552-7.909 6.647-8.814-.393-.393-1.179.117-1.748 1.134-.569 1.016-2.271 3.232-3.783 4.924l-2.748 3.076-1.671-2.551c-1.623-2.477-1.569-2.708 1.873-7.933 3.17-4.811 3.374-5.506 1.929-6.564-.889-.651-1.32-1.664-.957-2.25.362-.587-.006-1.067-.818-1.067-.813 0-2.263-.301-3.223-.67-1.191-.457-1.516-.298-1.023.5.398.644.295 1.17-.229 1.17-.811 0-2.166-2.241-2.166-3.582 0-.23.787-.432 1.75-.448 1.667-.029 1.667-.079 0-1.05-.963-.561-1.75-1.468-1.75-2.016 0-.549 1.069-.191 2.375.794 1.306.985 2.158 2.356 1.893 3.047-.28.728.297 1.258 1.375 1.261 1.021.004 3.095.652 4.607 1.441s2.75 1.011 2.75.494c0-.518.873-.941 1.941-.941 2.462 0 3.02-.975 2.004-3.5-.442-1.1-.836-1.645-.875-1.211-.038.435-.676.224-1.417-.469-1.127-1.052-1.045-2.119.5-6.514 1.016-2.891 1.847-6.364 1.847-7.719 0-1.846.501-2.425 2-2.312 1.532.115 1.996.862 1.985 3.188-.009 1.67-.435 3.7-.948 4.511-.614.971-.524 1.738.266 2.25.811.525.471.975-1.053 1.393-3.093.847-3.133 5.339-.054 6.145 2.097.548 2.108.609.25 1.336-1.687.66-1.713.771-.196.832.963.038 1.75.568 1.75 1.177 0 .609-.661.853-1.468.544-.807-.31-1.734-.133-2.059.393-.325.526-.066.956.576.956.731 0 .944.892.569 2.386-.359 1.429-.066 2.827.73 3.488 1.691 1.403 14.217-5.93 14.026-8.211-.07-.837.441-1.288 1.149-1.016.701.269 1.576.001 1.945-.595a1.28 1.28 0 011.756-.414c.633.391.799.208.398-.441-.789-1.276 4.737-4.505 5.833-3.409.39.39 1.234-.005 1.877-.877.642-.873 1.843-1.849 2.668-2.17 1.199-.466 1.149-.599-.25-.662-.963-.043-1.75-.457-1.75-.918 0-.462 1.33-.76 2.955-.664 2.597.155 6.757-1.24 4.795-1.607a37.4 37.4 0 01-1.75-.39c-.55-.137-1.702-.306-2.559-.375-.857-.069-1.262-.606-.899-1.193.363-.588 1.252-.841 1.975-.564.722.277 2.589.153 4.148-.276l2.835-.78-3.181-.72c-1.749-.396-3.766-1.425-4.48-2.286-1.152-1.388-.911-1.481 2.124-.814 1.883.413 4.044 1.372 4.802 2.13 1.707 1.708 3.222 1.704 5.485-.014 2.598-1.972 2.128-2.577-1.25-1.608-2.357.676-3 .547-3-.601 0-.804-.626-1.702-1.392-1.996-1.071-.411-.841-1.128 1-3.114 2.147-2.316 2.883-4.254 2.499-6.574-.072-.431-.279-1.758-.46-2.947-.182-1.189-.852-2.336-1.489-2.549-.66-.22-.924.228-.613 1.037.3.783-.214 2.055-1.144 2.826-1.519 1.261-1.618 1.176-.978-.84.762-2.401-.705-2.983-3.331-1.32-1.623 1.027-6.323-.739-5.502-2.068.756-1.224 4.176-1.055 4.603.226.251.752 1.187.704 3.076-.157 2.013-.917 2.446-1.561 1.675-2.491-1.173-1.413.387-2.964 1.987-1.975.512.317 1.213.118 1.559-.441.345-.559 1.164-1.002 1.819-.984.658.017.407.627-.559 1.36-2.166 1.644-2.237 2.608-.191 2.608.879 0 1.263.48.879 1.1-.494.799-.119.799 1.376 0 2.91-1.558 5.974-1.488 4.386.1-2.034 2.034-1.388 4.715 1.3 5.389 1.375.345 2.5 1.045 2.5 1.555 0 .531-.825.485-1.934-.109-3.295-1.763-4.613-1.172-6.059 2.715-2.079 5.593-2.047 6.298.322 7.193 3.123 1.181 5.895-.545 5.228-3.254-.296-1.204-.28-1.626.036-.939 1.095 2.385 3.595 1.17 10.657-5.177.963-.865 2.125-1.573 2.584-1.573.459 0 3.497-1.817 6.75-4.038 3.254-2.22 4.566-2.866 2.916-1.436-7.75 6.721-9.314 7.991-10.127 8.224-.48.137-.873.662-.873 1.167 0 .504-.41 1.291-.91 1.75-.529.484-.609.309-.191-.417.395-.687.488-1.25.205-1.25-1.318 0-18.046 12.782-19.011 14.526-1.405 2.538-2.668 3.44-4.844 3.459-.963.008-5.213 2.265-9.444 5.015-4.231 2.75-8.082 5-8.558 5-.476 0-.541.563-.146 1.25.396.688.379.944-.038.569-.417-.374-3.075.745-5.906 2.487-3.979 2.449-4.695 3.237-3.153 3.47 5.76.871 6.496 1.291 6.496 3.708 0 2.683 2.955 4.854 5.355 3.933 1.126-.432 1.362-.052.95 1.525-.397 1.517-.888 1.819-1.769 1.088-.671-.557-1.505-.727-1.854-.379-.348.349-1.32.065-2.158-.631-1.186-.985-1.524-.993-1.524-.035 0 .676-.631.987-1.402.691-.771-.296-1.657-.283-1.969.028-.991.991-7.721 1.254-7.118.279.315-.511 2.381-1.47 4.591-2.132 3.103-.93 3.663-1.403 2.458-2.077-.858-.48-1.56-1.328-1.56-1.883 0-.555.563-.671 1.25-.258.879.528.85.257-.097-.91-2.243-2.766-9.074-1.169-11.057 2.585-.637 1.206-.942 1.427-.678.493.332-1.176.034-1.528-.969-1.143-.797.306-1.449 1.408-1.449 2.449s-.45 1.893-1 1.893-1 .408-1 .906c0 .499.9.671 2 .384 1.118-.293 2-.031 2 .593 0 .615-.402 1.117-.893 1.117s-1.134.627-1.428 1.394c-.418 1.089.759 1.411 5.393 1.476 3.702.053 5.928-.33 5.928-1.018 0-1.09 3.542-.749 7.291.701 1.17.452 1.69.268 1.5-.533-.165-.694.934-1.372 2.531-1.562 2.36-.282 2.627-.101 1.628 1.103-1.016 1.223-.342 1.439 4.499 1.439 6.561 0 8.688-1.396 7.407-4.861l-.85-2.298-3.112 3.111c-2.457 2.457-3.405 2.869-4.503 1.958-.765-.635-1.391-1.83-1.391-2.655 0-1.22.28-1.267 1.5-.255 1.997 1.658 5.105-.566 3.497-2.503-.785-.946-.327-1.157 1.944-.892 3.525.41 4.05-.2 3.345-3.889-.413-2.163-.943-2.642-2.408-2.177-1.033.328-1.878.151-1.878-.392 0-.544 1.354-1.285 3.009-1.649 1.655-.363 2.753-1.074 2.441-1.579-.313-.506.599-.919 2.026-.919 2.327 0 2.478.217 1.469 2.102-.619 1.156-.901 2.956-.629 4 .273 1.044.089 1.898-.41 1.898-1.231 0-1.154 3.729.094 4.5 1.577.975 1.165 3.5-.571 3.5-1.404 0-1.41.162-.057 1.515 1.299 1.299 5.897 1.476 32.321 1.25l30.807-.265.258-60 .258-60-50.341.268c-39.002.207-50.365.545-50.447 1.5-.211 2.479-2.073 8.909-2.768 9.561-.699.656-.262-2.565 1.096-8.079l.677-2.75h-13.057c-7.281 0-13.321.426-13.652.962-.381.616-1.505.616-3.125 0-3.541-1.347-26.709-1.273-25.872.082.878 1.421-1.372 3.956-3.511 3.956-1.315 0-1.622-.609-1.261-2.5l.478-2.5H0v60m.47 0c0 33.275.126 46.888.279 30.25.154-16.637.154-43.862 0-60.5C.596 81.113.47 94.725.47 128m131.073-58.069c-.683 1.105.894 2.299 1.818 1.375.95-.951.773-2.306-.302-2.306-.518 0-1.2.419-1.516.931m28.639 4.569c-.627 1.375-.811 2.486-.411 2.468 1.34-.058 4.229-2.674 4.229-3.828 0-2.112-2.669-1.161-3.818 1.36m5.387 2.389c-.303.489-.172 2.915.291 5.391.49 2.623.457 5.189-.08 6.148-.789 1.411-.518 1.549 1.9.97 1.551-.371 3.617-1.083 4.591-1.583.974-.499 2.103-.702 2.511-.45.407.252 1.585-.16 2.618-.915 1.77-1.295 1.598-1.631-3.011-5.872-4.706-4.33-7.66-5.566-8.82-3.689m52.098.778c-1.218 1.218-.689 3.333.833 3.333.833 0 1.5-.889 1.5-2 0-1.992-1.066-2.601-2.333-1.333m-67.782 4.188c-3.513 2.731-9.574 4.45-12.688 3.597l-2.697-.739 2.5-.712c1.836-.523 1.172-.715-2.5-.723-2.75-.005-5.401.221-5.891.503-.829.475 9.407 4.248 12.097 4.458.663.052.943.519.623 1.038-.321.52.711 2.004 2.294 3.298 3.457 2.828 4.529 3.024 3.686.675-.345-.963-.262-1.418.185-1.013.448.405.868 1.764.935 3.019.067 1.255 1.183 3.998 2.479 6.095 2.533 4.099 3.952 11.999 2.334 12.999-.584.362-1.263-1.819-1.661-5.339-.734-6.487-1.895-8.162-3.534-5.1-.698 1.306-.715 2.176-.05 2.587.552.341 1.003 1.07 1.003 1.62s-.45.722-1 .382c-.55-.34-1-.21-1 .288 0 .499-1.012 1.395-2.25 1.992-1.87.901-1.944 1.096-.441 1.152.995.038 1.53.519 1.189 1.071-.406.657-1.363.605-2.775-.151l-2.155-1.153 2.216-1.472c1.219-.809 2.216-2.125 2.216-2.925 0-1.079-.776-.854-3.006.872-2.646 2.048-2.951 2.804-2.553 6.326.412 3.639.36 3.752-.577 1.25-.567-1.513-1.443-2.75-1.947-2.75s-.804-.39-.667-.868c.138-.477-.792-1.72-2.066-2.762-2.008-1.643-2.174-2.266-1.25-4.697 1.675-4.406 1.327-7.371-.934-7.963-2.279-.596-2.578.283-.75 2.202 1.022 1.073.794 1.181-1.25.588-1.375-.399-2.928-1.124-3.45-1.612-1.467-1.371-5.274-1.05-5.867.494-.291.761.136 3.316.95 5.679 1.337 3.88 1.324 4.383-.132 5.198-.886.496-2.026 1.991-2.532 3.322-1.101 2.897-3.003 3.264-2.263.437.38-1.453-.153-2.238-1.997-2.938-1.383-.526-2.81-1.434-3.171-2.018-.361-.584-1.192-1.048-1.847-1.03-.655.017.072 1.142 1.615 2.5 1.93 1.697 2.32 2.468 1.25 2.468-.856 0-2.418-.862-3.473-1.917-1.054-1.054-2.179-1.654-2.5-1.333-.32.321-.583-.392-.583-1.583 0-2.52-1.509-2.889-2.393-.585-.85 2.216-.73 12.676.162 14.078.405.638 2.082 1.313 3.726 1.5 4.485.51 4.516 3.428.045 4.266-3.153.592-3.441.891-2.515 2.621.575 1.074 1.652 1.953 2.394 1.953 1.767 0 2.701 3.67 1.228 4.828-.631.496-3.03 1.141-5.332 1.433-3.957.502-4.271.351-5.75-2.766-.861-1.813-1.533-4.354-1.495-5.646.054-1.797.413-1.415 1.526 1.627.801 2.187 1.949 4.437 2.552 5 .766.715.759.366-.026-1.16-.617-1.202-1.081-3.452-1.032-5 .086-2.685.136-2.653 1.074.684.54 1.925 1.649 4.175 2.463 5 1.315 1.331 1.407 1.303.82-.25-.48-1.271-.153-1.759 1.196-1.782 1.622-.028 1.666-.186.343-1.25-.832-.67-2.315-2.47-3.294-4-.979-1.53-2.21-2.516-2.736-2.191-.57.353-1.01-2.356-1.089-6.718-.073-4.02-.159-8.434-.191-9.809s.366-2.5.883-2.5c.518 0 .794 1.64.615 3.644-.179 2.005.159 3.944.75 4.309.707.437 1.076-.872 1.076-3.812 0-5.045.746-7.641 2.197-7.641.54 0 1.875-1.013 2.966-2.25l1.984-2.25-.546 3.238c-.464 2.749-.21 3.316 1.676 3.758 1.223.286 3.573.404 5.222.262 2.444-.21 3.058.158 3.32 1.992.176 1.237.739 2.25 1.251 2.25 1.191 0 1.219-3.703.034-4.436-2.379-1.47 2-10.564 5.087-10.564.445 0 .809-.508.809-1.128 0-1.093-5.207-.711-9.663.71-1.385.441-1.231.052.625-1.581 1.668-1.466 3.377-2.031 5.294-1.75 1.558.229 3.064.041 3.347-.418.283-.458-.299-.847-1.294-.865-1.688-.029-1.679-.13.132-1.5 1.068-.807 1.495-1.468.95-1.468-.545 0-1.418.389-1.941.864-.522.474-2.3 1.328-3.95 1.897-1.65.569-3.9 1.378-5 1.797-1.805.688-1.769.509.359-1.828 2.11-2.317 8.205-4.401 11.891-4.066.688.063 1.25-.256 1.25-.708 0-1.495-4.13-2.164-8.849-1.432-3.645.565-4.218.888-2.651 1.491 1.842.71 1.861.827.238 1.489-1.05.429-4.077-.228-7.5-1.627-3.156-1.29-6.087-2.236-6.512-2.103-.426.133-2.558.312-4.737.398-2.313.09-4.801.936-5.976 2.03-3.903 3.637-1.569 11.382 2.685 8.907 1.311-.763 1.407-1.056.352-1.079-2.253-.047.093-1.924 3.695-2.957 2.301-.66 3.242-.55 3.614.42.622 1.622-.191 2.507-2.304 2.507-1.244 0-1.593.972-1.526 4.25.047 2.338-.536 5.299-1.297 6.581-.761 1.282-1.152 2.936-.867 3.677.284.74-.205 1.941-1.086 2.669C90.143 113.591 80 132.561 80 136.88c0 .312 2.431-4.373 5.402-10.412 2.97-6.039 6.443-11.877 7.715-12.974l2.315-1.994-1.702 2.5c-3.086 4.533-12.714 25.217-12.157 26.118.3.485.117.882-.407.882s-1.22.698-1.548 1.552c-.341.89-.173 1.291.393.941 1.346-.832 1.247-.216-.505 3.143-.821 1.575-1.496 4.102-1.5 5.614-.003 1.512-.394 2.75-.868 2.75-1.149 0-.528-8.83 1.231-17.5l2.032-10c.583-2.858.54-2.906-.914-1-.839 1.1-2.079 2.675-2.756 3.5-.677.825-1.206 3.975-1.175 7 .031 3.025-.154 6.367-.412 7.426-.445 1.827-.51 1.817-1.253-.193-.431-1.165-.358-3.604.162-5.419 1.191-4.151 1.19-5.746-.002-3.862-.506.799-1.216 3.611-1.579 6.25-.707 5.143-2.469 6.6-2.477 2.048-.01-5.783 3.391-12.644 9.17-18.5 5.52-5.593 5.533-7.205.035-4.345-3.976 2.069-6.788 5.446-9.668 11.609-1.41 3.017-2.29 4.361-1.955 2.986 1.198-4.925 4.521-10.768 7.843-13.791 1.859-1.692 3.538-2.926 3.73-2.743.193.183.93-.297 1.639-1.067 3.782-4.103-8.665.48-13.532 4.983-2.066 1.912-4.025 3.396-4.353 3.297-1.211-.364-4.107 2.798-6.047 6.601-1.098 2.153-2.223 3.687-2.5 3.41-.726-.726 2.114-5.908 5.337-9.738 1.522-1.809 4.776-4.563 7.232-6.12 5.88-3.729 3.493-3.611-4.543.224-4.957 2.366-7.31 4.284-10.424 8.5-2.212 2.994-4.244 5.444-4.516 5.444-1.224 0 3.037-6.48 6.61-10.053 2.171-2.171 3.565-3.947 3.097-3.947-1.438 0-8.715 5.632-10.952 8.475-3.238 4.116-6.529 13.596-5.183 14.931.803.796.9.55.357-.906-.617-1.654-.497-1.798.694-.833 1.979 1.605 3.802.041 6.929-5.947 1.372-2.628 4.706-6.902 7.409-9.499l4.915-4.721-4.58 5.744c-2.519 3.159-5.124 7.434-5.79 9.5-.665 2.066-1.652 4.314-2.193 4.996-.708.891-.319 1.49 1.38 2.128 1.748.657 2.59.498 3.23-.609.54-.932.433-1.765-.284-2.208-1.53-.946-.278-4.063 1.377-3.428.752.288 1.546-.471 1.896-1.813.331-1.271 1.762-3.66 3.179-5.31 2.173-2.53 2.333-2.596 1.021-.425-.855 1.416-2.602 5.466-3.882 9-2.214 6.114-2.475 6.413-5.386 6.187-2.403-.188-3.181.225-3.625 1.923-.715 2.735-.02 3.89 1.9 3.153.836-.321 1.269-1.295.98-2.206-.385-1.212.125-1.632 1.981-1.632 1.456 0 2.317.475 2.063 1.137-.273.712.32.939 1.586.608 1.805-.472 1.888-.313.767 1.48-1.558 2.496-.587 5.461 1.523 4.651 1.746-.67 2.039 1.302.538 3.624-.828 1.282-.972 1.246-.985-.25-.008-.963-.465-1.75-1.015-1.75-.55 0-1 .9-1 2s.45 2 1 2 1 .477 1 1.059-.45.781-1 .441c-.585-.362-1 .676-1 2.5 0 1.904-.405 2.868-1.04 2.475-.682-.421-.806.333-.359 2.191.943 3.925 1.115 3.94 1.878.156.369-1.827 1.413-4.897 2.321-6.822 1.475-3.127 1.687-3.261 1.995-1.25.189 1.238.789 2.25 1.334 2.25.544 0 .66.563.258 1.25-.402.688.169.463 1.27-.5 1.1-.963 2.195-1.75 2.432-1.75.938 0 .751 6.658-.26 9.25-1.213 3.112-2.305 3.417-4.472 1.25-.825-.825-1.993-1.5-2.595-1.5-.602 0-.811.284-.464.631.347.348.197 1.443-.333 2.435-1.089 2.034.466 7.404 1.889 6.524.471-.291.645.582.385 1.94-.274 1.434-.004 2.47.644 2.47.615 0 1.124-.787 1.132-1.75.012-1.363.206-1.45.875-.393 1.314 2.073 2.549-.535 2.288-4.829-.267-4.379.514-5.536 4.322-6.404 1.65-.377 2.455-.318 1.79.13-.894.602-.747 1.104.561 1.921 1.56.974 1.722.773 1.359-1.694-.253-1.726-1.164-2.997-2.375-3.314-1.856-.485-1.878-.683-.4-3.541 1.961-3.792 1.978-5.126.065-5.126-.848 0-1.5-.895-1.5-2.059 0-1.132.45-1.781 1-1.441.55.34 1-.084 1-.941s-.562-1.446-1.25-1.309c-.687.138-1.131-.333-.985-1.045.146-.712.348-2.287.45-3.5.147-1.75.834-2.219 3.329-2.274l3.144-.068-1.959 5.737c-1.954 5.724-1.954 5.742.059 7.903 1.857 1.993 2.095 2.029 2.977.453.548-.98 1.221-1.287 1.573-.718.338.547-.226 1.755-1.253 2.685-2.004 1.814-1.882 3.84.561 9.327 1.768 3.969 2.815 4.237 1.952.5-1.545-6.691-1.669-8.25-.658-8.25.583 0 1.06.498 1.06 1.107s.616.87 1.37.581c1.042-.4 1.341.53 1.25 3.887-.066 2.427-.484 4.416-.929 4.419-.445.003-.563.405-.261.892.301.488-.393 1.132-1.542 1.433-1.171.306-1.795 1.023-1.42 1.63.369.596 1.031.861 1.472.588.441-.272 1.816.384 3.055 1.459 2.564 2.224 4.498 2.173 7.896-.207 1.484-1.039 2.147-2.247 1.772-3.225-.368-.96-.059-1.564.801-1.564.771 0 1.68-.877 2.02-1.949.41-1.292 1.165-1.739 2.241-1.326 1.18.453 1.459.197 1.023-.938-.446-1.163-.108-1.432 1.327-1.057 1.077.282 1.925-.004 1.925-.649 0-.814.547-.859 1.866-.152 1.217.651 1.77 1.881 1.589 3.535-.154 1.395.18 2.536.74 2.536s.774-.638.475-1.417c-.299-.78.153-1.685 1.004-2.012 1.093-.419 1.377-.146.964.929-.321.838.191 3.082 1.139 4.987 1.815 3.65 3.223 4.529 3.223 2.013 0-.825.45-1.5 1-1.5s1 .45 1 1 .45 1 1 1 1-.73 1-1.622c0-1.279.297-1.376 1.403-.459 1.077.894 1.523.865 1.924-.127.411-1.021.73-.992 1.517.138 1.012 1.452 5.156 2.3 5.156 1.056 0-.374.985-1.12 2.189-1.657 1.369-.611 1.774-1.234 1.081-1.662-.61-.377-1.788-.006-2.618.824-2.087 2.087-4.812 1.939-4.446-.241.162-.963.731-2.063 1.266-2.446.548-.393.164-1.006-.878-1.406-1.266-.486-2.362-.063-3.472 1.339-2.395 3.027-5.471 3.611-8.044 1.527-2.177-1.763-2.087-5.264.136-5.264.55 0 .741.675.424 1.5-.65 1.694.896 2.063 1.892.451.446-.721 1.036-.727 1.891-.017.87.722 1.806.62 3.119-.34 1.032-.754 2.399-1.171 3.039-.925.64.245 1.432-.255 1.761-1.112.328-.856 1.286-1.557 2.129-1.557.842 0 1.531-.338 1.531-.75s-1.068-.75-2.373-.75c-1.487 0-2.193.466-1.893 1.25.561 1.462-.632 1.601-2.67.311-1.185-.75-1.209-1.182-.137-2.473 1.083-1.305 1.024-1.67-.358-2.2-2.331-.894-3.066.22-1.883 2.858 1.208 2.694.671 4.754-1.238 4.754-.762 0-1.248-.562-1.081-1.25.168-.687.122-.929-.102-.536-.224.393-1.276.172-2.336-.491-1.506-.94-2.355-.938-3.87.008-1.701 1.063-2.124.845-3.423-1.759-1.415-2.836-1.383-2.975.691-3.035 2.115-.062 2.11-.089-.182-1.007-1.422-.57-2.141-1.497-1.817-2.343.552-1.438-1.604-15.607-2.626-17.26-.814-1.318.877-3.705 2.092-2.954.56.346.83 1.416.599 2.378-.541 2.259 1.058 4.706 2.495 3.818.612-.378 1.112-1.137 1.112-1.687s-.52-.679-1.155-.287c-.699.433-.883.276-.467-.397 1.01-1.635 3.622-.282 3.622 1.878 0 1.204.505 1.667 1.432 1.312.787-.302 1.366-1.424 1.285-2.493-.08-1.07-.673-1.742-1.317-1.495-.644.247-2.159-.688-3.367-2.077-1.658-1.907-2.912-2.421-5.115-2.098-1.605.236-2.918.109-2.918-.282 0-1.095 4.976-1.791 5.599-.782.304.49 1.08.827 1.726.747 2.56-.316 3.675.158 3.675 1.561 0 .971.576 1.247 1.699.816 1.063-.408 1.251-.802.5-1.052-.659-.22-1.192-1.6-1.184-3.066.011-1.908.264-2.275.889-1.289.537.848 1.396 1.063 2.234.558 1.136-.684 1.134-.539-.01.872-1.2 1.479-1.13 1.692.55 1.692 1.057 0 2.441.519 3.076 1.154.872.872 2.021.493 4.7-1.551 1.95-1.488 3.546-3.092 3.546-3.565 0-1.039-5.803-6.038-7.009-6.038-1.078 0-2.382-3.943-1.572-4.752.331-.331 1.16.107 1.841.974 1.873 2.38 5.74 3.287 5.74 1.345 0-1.964 1.874-2.058 2.614-.13.606 1.58 2.907 1.098 5.545-1.162 1.447-1.239 1.783-1.202 2.619.293.725 1.296 1.651 1.541 3.789 1.005 1.556-.391 2.369-1.017 1.808-1.392-1.602-1.069-2.395-4.051-1.263-4.75.563-.348.783-1.263.488-2.032-.393-1.023.327-1.39 2.681-1.367 2.89.028 3.04.167 1.469 1.36-.963.731-1.75 1.896-1.75 2.591 0 .956.332.986 1.373.122.756-.627 2.082-.867 2.949-.535 1.146.44 1.86-.305 2.62-2.733 1.038-3.315 1.042-3.309.64.96-.315 3.349-.006 4.546 1.401 5.424 1.646 1.028 1.683 1.475.418 5.06-.763 2.163-1.066 4.447-.673 5.075.393.629.834 2.044.98 3.144.245 1.837.181 1.856-.782.229-.577-.974-1.424-1.539-1.883-1.256-.458.284-1.091-.157-1.407-.979-.315-.822-1.158-1.494-1.873-1.494-.715 0-2.067-1.238-3.005-2.75-.938-1.512-1.717-2.3-1.733-1.75-.015.55-1.94 1.117-4.276 1.259-2.775.17-3.773-.05-2.877-.634.754-.492 1.204-1.375 1-1.964-.461-1.327-8.872 5.536-8.872 7.238 0 .678 1.8 2.244 4 3.481 2.2 1.236 4 1.822 4 1.301 0-.521 1.012-1.225 2.25-1.564 1.877-.515 2.001-.78.75-1.602-.825-.541-1.05-.997-.5-1.013.55-.016 2.019-.302 3.265-.636 1.7-.456 2.128-.251 1.716.823-.416 1.083.237 1.376 2.692 1.206 1.978-.137 3.841.424 4.784 1.44.849.916 3.037 1.735 4.863 1.82 1.911.089 3.914.939 4.719 2 .768 1.015 1.412 1.338 1.429.717.018-.62-.616-1.665-1.409-2.323-.792-.657-1.216-1.779-.942-2.493s-.253-1.586-1.171-1.938c-1.239-.476-1.511-.23-1.057.954.39 1.016.158 1.444-.638 1.179-.688-.229-1.416-1.279-1.617-2.334-.201-1.054-.779-2.178-1.284-2.497-.505-.319-.63-1.329-.279-2.244.832-2.17 2.397-1.166 2.545 1.633.085 1.61.235 1.741.563.493.246-.933.007-2.52-.531-3.525-.609-1.139-.628-2.454-.051-3.486.589-1.052.558-1.886-.085-2.283-.556-.344-1.012-4.09-1.012-8.324 0-4.233-.442-9.239-.983-11.124-1.152-4.017-.659-5.128.945-2.132.618 1.155 1.397 6.594 1.732 12.086.334 5.492.968 9.986 1.408 9.986.44 0 .531-5.333.204-11.851-.44-8.75-.279-12.047.615-12.6.699-.432 1.751-.012 2.485.991 1.205 1.649 1.309 1.646 1.961-.055.453-1.18-.066-2.601-1.513-4.14-2.81-2.991-3.854-2.965-3.854.096 0 1.343-.498 2.749-1.107 3.125-.749.463-.884-.019-.418-1.489.404-1.273.162-2.809-.584-3.708-.701-.845-1.355-2.286-1.454-3.202-.098-.917-.51-2.454-.915-3.417-.602-1.432-.216-1.747 2.121-1.735 1.571.009 3.532.452 4.357.985 1.272.822 1.225.972-.309.985-.995.008-1.531.465-1.191 1.015 1.178 1.906 3.263.986 4.493-1.982 1.749-4.224.688-6.388-2.752-5.61-2.353.532-2.476.459-.871-.511 1.511-.914 1.607-1.297.5-1.999-2.383-1.509-8.499-.977-10.985.957M182.5 82c-.34.55-.168 1 .382 1s1.278-.45 1.618-1c.34-.55.168-1-.382-1s-1.278.45-1.618 1m32.494 2.75c-.004.963-.692 3.064-1.529 4.671-.873 1.672-1.149 3.295-.647 3.797.502.502 1.759-1.247 2.941-4.092 1.136-2.733 1.804-5.229 1.486-5.547-1.131-1.132-2.245-.553-2.251 1.171M100.5 86c.34.55 1.068 1 1.618 1s.722-.45.382-1c-.34-.55-1.068-1-1.618-1s-.722.45-.382 1m28.25 1.689c-2.004.524-2.375 2.281-.5 2.37 6.485.306 9.127.891 10.564 2.337 1.584 1.594 1.444 1.659-2.314 1.076-2.2-.342-5.107-.206-6.459.303-2.371.891-2.328.949 1.193 1.609 4.157.78 5.088 2.559 5.032 9.616-.031 3.808.12 4.162.979 2.301.763-1.653 2.037-2.273 5.135-2.5 3.339-.244 4.127-.681 4.157-2.302.021-1.101.366-2.533.768-3.183 1.033-1.672-4.774-6.868-10.993-9.838-2.854-1.363-5.329-2.426-5.5-2.362-.172.064-1.099.322-2.062.573m-37.083.978c-.367.366-.667 1.131-.667 1.7 0 .626.466.567 1.183-.15.651-.651.951-1.416.667-1.7-.284-.284-.817-.217-1.183.15m86.218-.131c-.285 2.376-.568 3.184-2.356 6.714-1.045 2.063-2.17 3.75-2.502 3.75-.331 0-.7 1.286-.819 2.859-.319 4.18 3.275 8.346 6.874 7.968 2.105-.22 3.804.603 6.577 3.188l3.74 3.485-3.199-3.785c-1.76-2.081-3.2-4.68-3.2-5.775 0-1.202-.989-2.366-2.5-2.94-2.02-.768-2.5-1.633-2.5-4.51 0-1.958.744-4.697 1.654-6.085 1.539-2.349 1.539-2.64 0-4.179-.91-.91-1.706-1.221-1.769-.69m-33.865 1.988c.696.838 1.471 1.318 1.723 1.067.693-.694-.716-2.591-1.924-2.591-.664 0-.588.574.201 1.524M108.5 91c-.34.55-.168 1 .382 1s1.278-.45 1.618-1c.34-.55.168-1-.382-1s-1.278.45-1.618 1m-2.403 5.56c-1.155 1.958-1.646 3.28-1.092 2.937 1.084-.67 4.33-6.497 3.619-6.497-.234 0-1.372 1.602-2.527 3.56m93.376-1.516c-.325.526-.313 1.406.027 1.956.756 1.223 3.5 1.332 3.5.139 0-.474 1.184-.635 2.631-.359 1.943.372 2.509.14 2.168-.888-.532-1.601-7.427-2.303-8.326-.848M137 95.378c0 .207.787.995 1.75 1.75 1.586 1.243 1.621 1.208.378-.378-1.307-1.666-2.128-2.195-2.128-1.372M115.5 97c-.34.55-.168 1 .382 1s1.278-.45 1.618-1c.34-.55.168-1-.382-1s-1.278.45-1.618 1m-21.926 1.667c-.352.917-.175 2.132.393 2.7.711.711 1.033.19 1.033-1.667 0-3.085-.499-3.447-1.426-1.033m30.426.392c0 .582.45.781 1 .441s1-.816 1-1.059-.45-.441-1-.441-1 .477-1 1.059m17.027 1.408c-.659.795-.921 1.895-.581 2.446.828 1.339 3.554.219 3.554-1.461 0-2.052-1.637-2.594-2.973-.985m-29.822 1.361c.362 1.878 2.926 2.28 3.503.549.205-.617-.571-1.369-1.725-1.671-1.581-.414-2.02-.137-1.778 1.122m95.188 2.754c.334.87.607 1.796.607 2.059 0 .262.45.199 1-.141 1.593-.985 1.157-3.5-.607-3.5-1.055 0-1.398.544-1 1.582m-5.82 4.535c.3.486 1.418.883 2.486.883 1.404 0 1.941.692 1.941 2.5 0 1.639-.559 2.5-1.622 2.5-1.329 0-1.398.271-.378 1.5.928 1.118.944 1.5.063 1.5-.649 0-.922.419-.606.931.317.512.118 1.213-.441 1.559-1.534.948-1.218 2.51.509 2.51 1.712 0 3.38-3.677 3.797-8.373.248-2.787.599-3.105 3.228-2.926 2.792.191 2.846.124 1.009-1.25-1.068-.798-2.418-1.48-3-1.515-.583-.035-2.515-.207-4.296-.383-1.78-.175-2.991.079-2.69.564M222 112c1.036 1.935 4 2.824 4 1.2 0-1.259-2.265-3.2-3.735-3.2-1.025 0-1.087.464-.265 2m-175.541.067c-.973 1.574.106 2.206 2.48 1.452 1.15-.365 1.832-1.081 1.517-1.591-.778-1.258-3.186-1.174-3.997.139m58.718 1.053c.178 1.197 1.089 2.656 2.025 3.243 2.881 1.805 3.067-.003.285-2.785-2.515-2.515-2.619-2.536-2.31-.458m43.165-1.483c.35.625-.034 1.692-.853 2.372-.819.68-1.489 1.631-1.489 2.113 0 1.575 1.49.925 2.842-1.24 1.044-1.672 1.064-2.356.093-3.25-.915-.843-1.066-.842-.593.005m-83.883 3.43c-.363.586-.445 1.281-.183 1.543s.743-.218 1.069-1.067c.676-1.762.1-2.072-.886-.476m182.041.736c-5.017 2.874-13.5 8.47-13.5 8.905 0 .498.58.173 9.75-5.461 3.988-2.45 7.25-4.632 7.25-4.851 0-.568-.177-.497-3.5 1.407m-33.767.321c.679.684 1.486.991 1.793.683.308-.308-.247-.867-1.233-1.243-1.425-.542-1.54-.428-.56.56m-49.875.876c-.303.825-.184 2.795.263 4.378.494 1.749.388 3.71-.271 5-.976 1.911-.927 1.973.49.622 1.244-1.186 1.416-2.545.82-6.5-.414-2.75-1-4.325-1.302-3.5m36.569-.235c-1.736 1.189-2.554 4.221-.975 3.615.743-.285 1.578-1.387 1.856-2.449.57-2.18.58-2.166-.881-1.166M191 119.5c1.292 1.375 2.516 2.5 2.721 2.5.831 0-3.29-4.94-4.145-4.969-.509-.017.132 1.094 1.424 2.469m-82 .059c0 .857.45 1.281 1 .941.55-.34 1-.115 1 .5s.45.84 1 .5c1.76-1.087 1.07-3.5-1-3.5-1.145 0-2 .667-2 1.559m-39.269 3.372c-1.836 1.612-4.511 5.1-5.944 7.75-2.672 4.943-6.082 20.018-4.719 20.861.419.259.951-.095 1.184-.786.327-.973.814-.933 2.158.176 1.269 1.049 1.616 2.456 1.293 5.25-.242 2.1-.076 3.818.369 3.818 1.433 0 1.907-1.658 2.327-8.145.227-3.495.683-7.705 1.014-9.355.331-1.65-.218-.778-1.221 1.939-1.003 2.716-2.315 5.102-2.916 5.302-1.563.521-2.621-1.606-1.51-3.035.515-.663 2.181-5.031 3.701-9.706 3.213-9.884 4.055-11.7 6.832-14.75 2.908-3.193 1.384-2.788-2.568.681m30.269-.99c0 1.068.45 2.219 1 2.559.567.351 1-.49 1-1.941 0-1.407-.45-2.559-1-2.559s-1 .873-1 1.941m36 .059c0 .55.45 1 1 1s1-.45 1-1-.45-1-1-1-1 .45-1 1m-91.5 2.659c-4.218 2.22-8.546 6.458-7.81 7.649.378.611.104.682-.705.182-.97-.599-1.149-.358-.666.898.362.944.253 1.465-.242 1.159-.784-.484-6.078 7.645-6.076 9.329 0 .343 1.091.687 2.424.764 1.796.103 2.734-.609 3.621-2.75.658-1.59 1.647-2.89 2.198-2.89.56 0 .452-.661-.244-1.5-1.008-1.215-.972-1.5.192-1.5 1.73 0 5.12-6.686 4.17-8.223-.369-.597-.238-.818.292-.491.529.327 2.286-.487 3.904-1.81 3.422-2.796 3.13-3.021-1.058-.817m67.959-.592c-.363.586-.445 1.281-.183 1.543s.743-.218 1.069-1.067c.676-1.762.1-2.072-.886-.476m32.747 3.242c.983 2.958 4.299 6.617 6.044 6.669.412.012.75-1.025.75-2.304 0-2.363-3.132-5.895-6.177-6.966-1.475-.518-1.55-.205-.617 2.601M217 124.378c0 .207.685.946 1.523 1.641 1.273 1.057 1.42.995.893-.378-.538-1.401-2.416-2.384-2.416-1.263m-181.128 3.286c-1.244 1.508-1.162 1.552.878.465 2.327-1.24 2.9-2.129 1.372-2.129-.482 0-1.495.749-2.25 1.664m122.795.003c-.367.366-.667 1.131-.667 1.7 0 .626.466.567 1.183-.15.651-.651.951-1.416.667-1.7-.284-.284-.817-.217-1.183.15M91.201 132c-1.464 5.07-1.276 24.167.234 23.755.971-.265 1.536-4.755.598-4.754-.724 0-.419-6.113.403-8.1.364-.88.528-4.705.363-8.5L92.5 127.5l-1.299 4.5m20.454-2.171c-1.816 2.006-2.322 4.238-.563 2.479.601-.601 2.964-.919 5.25-.707 4.151.385 4.153.384.872-.645-1.807-.568-3.018-1.465-2.691-1.994 1.047-1.693-1.153-1.029-2.868.867m-82.063 4.307C25.853 139.145 23.357 145 24.961 145c.452 0 1.09-1.065 1.416-2.367.327-1.302 2.211-4.717 4.186-7.589 4.676-6.797 3.94-7.485-.971-.908m110.221-4.453c.721.289 1.584.253 1.916-.079.332-.332-.258-.568-1.312-.525-1.165.048-1.402.285-.604.604M208 130c0 .55.675 1 1.5 1s1.5-.45 1.5-1-.675-1-1.5-1-1.5.45-1.5 1m-22.985 2.691c.009.445.452 1.484.985 2.309.835 1.293.971 1.266.985-.191.008-.93-.435-1.969-.985-2.309-.55-.34-.993-.254-.985.191m5.218.874c-1.027 1.919-.858 2.041 2.467 1.779 4.224-.332 5.767-1.344 2.05-1.344-1.421 0-2.77-.561-2.999-1.247-.265-.795-.816-.5-1.518.812m-164.598 1.869c-2.337 3.567-2.021 4.326.479 1.148 1.163-1.478 1.899-2.903 1.635-3.166-.263-.263-1.214.645-2.114 2.018m112.865-1.518c-3.826.605-3.876.659-1.15 1.239 3.244.69 6.65.039 6.65-1.272 0-.485-.338-.819-.75-.741-.412.078-2.55.426-4.75.774m41 .084c-.34.55.11 1 1 1s1.34-.45 1-1c-.34-.55-.79-1-1-1-.21 0-.66.45-1 1m-64.75.706c1.237.238 3.263.238 4.5 0 1.237-.239.225-.434-2.25-.434s-3.487.195-2.25.434M45.638 136.5c-.316.825-1.319 1.5-2.229 1.5-1.27 0-1.396.311-.54 1.342.612.738.818 1.638.456 2-.362.362-.403.658-.09.658.312 0 1.497-1.575 2.632-3.5 1.136-1.925 1.679-3.5 1.206-3.5-.472 0-1.118.675-1.435 1.5m159 0c.317.825.753 1.5.969 1.5.216 0 .393-.675.393-1.5s-.436-1.5-.969-1.5c-.532 0-.709.675-.393 1.5m30.029 5.167c-.367.366-.667 1.131-.667 1.7 0 .626.466.567 1.183-.15.651-.651.951-1.416.667-1.7-.284-.285-.817-.217-1.183.15M155 143c0 .55.45 1 1 1s1-.45 1-1-.45-1-1-1-1 .45-1 1m-116.551 2.861c-1.288 3.105-2.237 8.139-1.535 8.139 1.729 0 4.169-2.765 4.994-5.658.76-2.667.614-3.234-.939-3.64-1.104-.289-2.112.175-2.52 1.159m82.154 1.639c-1.044.79-2.276 1.202-2.739.916-.463-.286-.573.178-.246 1.032.328.854.082 1.552-.546 1.552-.806 0-.848.551-.142 1.869.55 1.027.773 2.095.495 2.372-.277.278 1.201.225 3.285-.118 4.847-.797 6.495-.755 8.029.205.85.533 1.05.286.638-.787-.456-1.188-.152-1.404 1.262-.9 1.023.364 2.648 1.339 3.611 2.166 1.579 1.356 1.758 1.317 1.829-.402.044-1.056.304-1.348.583-.655.278.688.906 1.25 1.396 1.25 1.266 0-.056-6.18-1.737-8.125-1.551-1.794-5.852-2.158-8.571-.726-1.133.597-1.75.557-1.75-.114 0-1.49-3.177-1.216-5.397.465m-76.876 2.436c-.351 1.34-.085 1.755.886 1.382 1.575-.604 1.817-1.934.501-2.748-.488-.301-1.112.314-1.387 1.366m131.854-.374c-.87.87-1.581 1.999-1.581 2.509 0 .511-.498.929-1.107.929s-.844-.684-.523-1.521c.473-1.234-.119-1.442-3.143-1.101-2.05.231-4.364-.097-5.143-.729-1.186-.962-1.294-.662-.669 1.849.978 3.924.921 3.897 4.391 2.102 3.286-1.699 4.334-1.106 5.656 3.203.582 1.898.966 2.087 2.185 1.075 1.301-1.08 1.291-1.333-.084-2.103-.86-.481-1.563-1.372-1.563-1.98 0-.608.823-.36 1.829.55 2.277 2.061 4.171 2.131 4.171.155 0-.962-.987-1.512-2.75-1.533l-2.75-.034 2.271-1.894c1.25-1.042 1.849-2.156 1.331-2.476-.517-.32-1.652.13-2.521.999M71 151.441c0 .857.45 1.559 1 1.559s1-.423 1-.941-.45-1.219-1-1.559c-.55-.34-1 .084-1 .941m152-.5c0 .518.445 1.216.989 1.552.566.35.734-.051.393-.941-.665-1.732-1.382-2.049-1.382-.611m-129 .508c0 .382.675 1.369 1.5 2.194s1.5 1.073 1.5.551c0-.522-.675-1.509-1.5-2.194s-1.5-.933-1.5-.551m16.046 1.465c-.774 1.447-.789 2.086-.05 2.086 1.213 0 2.533-2.805 1.709-3.629-.299-.298-1.045.396-1.659 1.543M51 153.091c-1.129.799-1.191 1.187-.25 1.568.688.279 1.25 1.37 1.25 2.424 0 1.054.439 1.917.975 1.917.634 0 .634-.898 0-2.565-1.36-3.578-1.166-4.272.557-1.994 1.435 1.897 1.468 1.891 1.468-.25 0-2.361-1.596-2.8-4-1.1m34.479-.057c-.388.627-.138 1.664.555 2.303.986.91 1.126.782.645-.587-.651-1.848.794-2.477 1.663-.725.279.564.401.479.27-.187-.329-1.681-2.281-2.182-3.133-.804m-38.818 1.789c-1.878 2.074-2.199 5.726-.591 6.72.589.364 1.472 1.628 1.962 2.809.728 1.753.862 1.464.728-1.573-.097-2.184-.757-3.947-1.599-4.271-1.189-.456-1.127-.888.363-2.535.989-1.092 1.572-2.21 1.297-2.485-.275-.275-1.247.325-2.16 1.335m54.806.637c1.298 2.625 1.287 3.154-.096 4.682-.857.948-2.304 1.486-3.215 1.196-1.395-.444-1.424-.363-.184.514 1.274.901 1.247 1.127-.202 1.683-2.363.907-3.77-.248-3.77-3.094 0-1.503-.576-2.441-1.5-2.441-1.783 0-1.849.48-.431 3.13.795 1.484.731 2.416-.25 3.626-.962 1.187-.98 1.424-.069.877.688-.413 1.26-.387 1.272.058.012.445.952 1.934 2.087 3.309 1.136 1.375 1.771 1.933 1.413 1.241-.358-.692-.359-2.179-.002-3.303.517-1.631.934-1.806 2.064-.868 1.133.94 1.44.801 1.534-.698.066-1.029.068-2.202.006-2.604-.062-.403 1.01-1.015 2.382-1.359 3.139-.788 3.137-2.123-.009-5.909l-2.493-3 1.463 2.96M205 154.059c0 .582.45.781 1 .441s1-.816 1-1.059-.45-.441-1-.441-1 .477-1 1.059m22-.059c0 .55.477 1 1.059 1s.781-.45.441-1-.816-1-1.059-1-.441.45-.441 1m-189.25 1.08c-.962.561-1.743 1.785-1.735 2.72.013 1.463.151 1.491.985.2.747-1.155.973-.822.985 1.45.019 3.653 1.539 2.309 2.489-2.2.719-3.412.165-3.853-2.724-2.17m75.757-.091c-.35.566.051.734.941.393 1.732-.665 2.049-1.382.611-1.382-.518 0-1.216.445-1.552.989m102.576.856c-.8 1.494-.888 5.255-.191 8.155.066.275.79-.784 1.609-2.354s1.258-3.226.977-3.681c-.281-.455-.046-1.114.522-1.465 1.141-.705.406-2.5-1.024-2.5-.498 0-1.35.83-1.893 1.845m15.917-.963c0 .55.45 1.278 1 1.618.55.34 1 .168 1-.382s-.45-1.278-1-1.618c-.55-.34-1-.168-1 .382m-66 2.285c0 1.191.127 1.979.283 1.75.156-.229.886-1.204 1.622-2.167 1.147-1.498 1.106-1.75-.283-1.75-.997 0-1.622.835-1.622 2.167m-88 .333c-.718.865-.815 1.5-.229 1.5.558 0 1.274-.675 1.591-1.5.316-.825.419-1.5.229-1.5-.19 0-.906.675-1.591 1.5m4.96 3.222c.297 2.54 1.08 4.796 1.739 5.014.89.294.962-.432.279-2.812-.506-1.765-.713-3.544-.46-3.953.253-.409-.116-1.222-.819-1.806-1.019-.846-1.17-.122-.739 3.557m13.61-3.835c-.301.487.087 1.413.862 2.057 1.153.956 1.312.794.873-.887-.594-2.271-.919-2.49-1.735-1.17M110 157c0 .55.45 1 1 1s1-.45 1-1-.45-1-1-1-1 .45-1 1m82.344 1.492c1.165 2.511 3.07 3.265 4.088 1.617.303-.489-.554-1.614-1.905-2.5-3.281-2.149-3.541-2.044-2.183.883M120 160.059c0 .582-.445.784-.989.448-.577-.357-.727.069-.36 1.025.491 1.282.802 1.353 1.434.33.615-.995.981-.854 1.536.593.713 1.857.744 1.856 1.429-.028.385-1.06.504-2.265.266-2.677-.661-1.142-3.316-.894-3.316.309m5.362-.283c.369.597.213 1.368-.346 1.714-.559.345-1.016 1.512-1.016 2.592 0 1.876.115 1.889 2.551.292 1.921-1.258 2.835-1.388 3.7-.523.632.632 2.297 1.097 3.699 1.033 2.086-.095 2.186-.207.55-.617-1.1-.275-3.125-1.274-4.5-2.22-4.177-2.872-5.371-3.457-4.638-2.271m85.132 1.23c-.998 1.104-1.528 2.293-1.178 2.643.35.351.921-.102 1.267-1.006.347-.904 1.258-1.643 2.024-1.643s1.393-.45 1.393-1c0-1.603-1.545-1.16-3.506 1.006m13.631-.131c-1.031 1.031-2.494 2.121-3.25 2.421-.828.329-.513.578.792.625 1.191.043 2.325.555 2.519 1.136.703 2.111 3.398-.185 3.619-3.083.26-3.416-.99-3.789-3.68-1.099M51 161.393c0 .766.624 1.632 1.387 1.925.973.374 1.236-.042.883-1.393-.579-2.214-2.27-2.61-2.27-.532m60.365.061c-2.177 2.331 2.026 7.658 4.725 5.99 1.653-1.021.946-2.444-1.212-2.444-1.577 0-1.86-.322-1.101-1.25 1.419-1.735-.887-3.929-2.412-2.296m54.194 1.014c1.067.808 2.365 1.483 2.882 1.5.518.018.068-.629-1-1.436-1.067-.808-2.365-1.483-2.882-1.5-.518-.018-.068.629 1 1.436m35.441-.306c0 .932.308 1.023 4.25 1.263 1.64.1 2.75-.343 2.75-1.098 0-.805-1.274-1.218-3.5-1.135-1.925.073-3.5.509-3.5.97m30.75.63c.963.985 1.917 1.383 2.122.884.204-.499-.246-1.298-1-1.776-2.338-1.481-2.958-.988-1.122.892m-84.319 1.32c-.976 1.578 1.731 2.998 3.274 1.717.7-.58 1.026-1.455.725-1.942-.767-1.242-3.176-1.106-3.999.225m-124.972.955c-.363.586-.445 1.281-.183 1.543s.743-.218 1.069-1.067c.676-1.762.1-2.072-.886-.476m35.915.4c-.309.807-.37 2.044-.134 2.75s.666.045.956-1.467c.566-2.953.099-3.682-.822-1.283M38 167.917c0 1.604-.562 3.143-1.25 3.421-.901.363-.918.526-.059.583 1.484.098 2.072-.828 2.691-4.241.267-1.474.065-2.68-.448-2.68-.514 0-.934 1.313-.934 2.917m32.872-1.167c-1.243 1.586-1.208 1.621.378.378.963-.755 1.75-1.543 1.75-1.75 0-.823-.821-.294-2.128 1.372M159.5 166c-.34.55-.141 1 .441 1s1.059-.45 1.059-1-.198-1-.441-1-.719.45-1.059 1m46.052.25c-.212.688-.654 2.6-.984 4.25-.576 2.887-.539 2.925.997 1l1.596-2-.196 2c-.328 3.358-.032 3.71 1.68 1.998 1.316-1.316 1.808-1.383 2.455-.336.496.803.247 1.624-.645 2.123-1.496.837-2.046 3.727-.705 3.7 1.759-.036 2.934-1.643 2.762-3.777-.215-2.682.661-3.382 4.655-3.722 1.612-.137 3.154-.474 3.428-.748.865-.865-6.57-1.872-7.862-1.065-1.788 1.117-3.733 1.282-3.733.316 0-.868 6.936-3.553 8.25-3.194.412.113.75-.245.75-.795 0-1.311-.419-1.27-4.532.449-3.028 1.265-3.468 1.265-3.468 0 0-1.77-3.91-1.945-4.448-.199m-144.83.872c.617.617.884 1.742.593 2.5-.706 1.84.849 1.746 3.244-.196 1.067-.866 1.375-1.287.684-.937-.691.351-1.527-.066-1.857-.926-.33-.859-1.317-1.563-2.193-1.563-1.177 0-1.3.293-.471 1.122M129.5 167c.34.55.816 1 1.059 1s.441-.45.441-1-.477-1-1.059-1-.781.45-.441 1m106.125 1.95c1.072 2.148 1.934 2.768 3.173 2.28 1.602-.632 1.602-.691-.001-1.015-.937-.189-1.979-1.215-2.317-2.279-.338-1.065-1-1.936-1.471-1.936-.471 0-.193 1.328.616 2.95M46 167.927c0 .509.788 1.132 1.75 1.384 1.667.435 1.667.463 0 .573-1.509.1-1.731 1.116-1.613 7.366l.137 7.25.715-6.303c.394-3.466 1.197-6.783 1.786-7.372.588-.588.831-1.689.54-2.447-.589-1.534-3.315-1.906-3.315-.451m44.655.53c-.326.849-.066 1.543.576 1.543.874 0 .867.302-.031 1.2-.66.66-1.164 1.897-1.121 2.75.053 1.039.246 1.136.585.294.279-.691.845-1.048 1.258-.792.838.518.708-5.156-.138-6.001-.295-.296-.803.157-1.129 1.006m87.158-.774c.721.289 1.584.253 1.916-.079.332-.332-.258-.568-1.312-.525-1.165.048-1.402.285-.604.604m48.266.721c-1.439 1.735 1.323 3.03 3.667 1.718 1.369-.766 1.306-1.024-.481-1.98-1.572-.841-2.321-.779-3.186.262M145.5 169c.34.55 1.068 1 1.618 1s.722-.45.382-1c-.34-.55-1.068-1-1.618-1s-.722.45-.382 1m7 1c.34.55.816 1 1.059 1s.441-.45.441-1-.477-1-1.059-1-.781.45-.441 1m-25.957.931c-.317.512-.118 1.213.441 1.559.559.345 1.016.125 1.016-.49s.52-.797 1.155-.405c.715.443.883.275.44-.44-.86-1.393-2.266-1.496-3.052-.224m5.457.1c0 .533.675.969 1.5.969s1.5-.177 1.5-.393c0-.216-.675-.652-1.5-.969-.825-.316-1.5-.139-1.5.393m64 1.469c0 .825.73 1.5 1.622 1.5 1.329 0 1.398-.271.378-1.5-.685-.825-1.415-1.5-1.622-1.5-.208 0-.378.675-.378 1.5M39.158 174c0 1.375.227 1.938.504 1.25.278-.687.278-1.812 0-2.5-.277-.687-.504-.125-.504 1.25m62.342-1c.34.55.816 1 1.059 1s.441-.45.441-1-.477-1-1.059-1-.781.45-.441 1m28.5 1c0 .55.45 1 1 1s1-.45 1-1-.45-1-1-1-1 .45-1 1m23 1.059c0 1.132.45 1.781 1 1.441.55-.34 1-1.266 1-2.059 0-.793-.45-1.441-1-1.441s-1 .927-1 2.059M69.5 175c.34.55 1.068 1 1.618 1s.722-.45.382-1c-.34-.55-1.068-1-1.618-1s-.722.45-.382 1m64.044.255c.361.939-.301 2.162-1.699 3.141-1.26.882-1.852 1.594-1.318 1.582.535-.012 2.021-.828 3.301-1.813 2.102-1.617 2.172-1.92.727-3.119-1.358-1.128-1.511-1.096-1.011.209m15.915-.188c-1.076 1.741.149 2.11 1.521.457.789-.95.865-1.524.201-1.524-.584 0-1.36.48-1.722 1.067M21 175.905c0 .83 4.102 2.326 4.711 1.718.163-.164-.829-.812-2.207-1.439-1.377-.628-2.504-.753-2.504-.279M200 176c-1.282.828-1.246.972.25.985 2.037.018 2.251 1.114.55 2.815-.898.898-.905 1.2-.031 1.2.642 0 .909.675.593 1.5-.317.825-.123 1.5.43 1.5.554 0 1.168-2.025 1.365-4.5.362-4.553-.334-5.324-3.157-3.5m-114.831 2.024c-1.209 3.205-.774 3.814 2.307 3.225 1.667-.318 2.524-1.142 2.524-2.425 0-1.17-.442-1.669-1.112-1.255-.611.378-1.488.078-1.948-.667-.633-1.023-1.066-.748-1.771 1.122m-45.502-.357c-.367.366-.667 1.131-.667 1.7 0 .626.466.567 1.183-.15.651-.651.951-1.416.667-1.7-.284-.285-.817-.217-1.183.15M60.5 178c.34.55.816 1 1.059 1s.441-.45.441-1-.477-1-1.059-1-.781.45-.441 1m12.214 1.013c.405 1.551.153 1.873-1.093 1.395-.893-.343-1.621-.125-1.621.485 0 .609.787 1.114 1.75 1.122 1.384.012 1.462.198.372.889-2.572 1.629-.123 2.936 5.638 3.009 3.157.039 6.865.188 8.24.33 1.375.141 2.614-.166 2.754-.683.14-.516-1.32-.976-3.245-1.02-2.463-.058-3.979-.766-5.117-2.391-1.206-1.722-2.225-2.157-4.005-1.71-1.7.427-2.387.179-2.387-.861 0-.803-.408-1.712-.907-2.02-.498-.309-.669.347-.379 1.455M175 178c-1.207.78-1.049.972.809.985 1.288.008 2.036-.427 1.691-.985-.743-1.202-.639-1.202-2.5 0m20 2.059c0 .582.45.781 1 .441s1-.816 1-1.059-.45-.441-1-.441-1 .477-1 1.059M24.5 181c.34.55.816 1 1.059 1s.441-.45.441-1-.477-1-1.059-1-.781.45-.441 1m15.658 2c0 1.375.227 1.938.504 1.25.278-.687.278-1.812 0-2.5-.277-.687-.504-.125-.504 1.25m78.512.417c-.299.78.14 1.68.975 2 2.174.835 2.223.793 1.645-1.417-.61-2.333-1.843-2.607-2.62-.583m4.33.166c0 .871.534 1.406 1.188 1.188 1.854-.618 2.161-2.771.395-2.771-.87 0-1.583.713-1.583 1.583m14.079 1c.048 1.165.285 1.402.604.605.289-.722.253-1.585-.079-1.917-.332-.332-.568.258-.525 1.312M108 184.455c0 .772 2.976 1.392 3.399.709.254-.412-.406-.814-1.468-.894-1.062-.08-1.931.003-1.931.185" fill="#1976D2" fill-rule="evenodd"/><path fill-opacity=".29" d="M0 128v60h2.808c2.67 0 2.798-.209 2.592-4.234-.118-2.329.163-6.042.627-8.25l.842-4.016-.023 5c-.054 11.379-.027 11.5 2.521 11.5h2.367l-.417-14.25c-.571-19.486-.589-19.28 2.205-24.793 1.363-2.69 2.478-5.073 2.478-5.296 0-.223-1.8-.693-4-1.045s-4-.92-4-1.263c0-.343 1.125-1.666 2.5-2.941 1.636-1.516 2.5-3.393 2.5-5.432 0-2.697.278-3.026 2.074-2.457 2.326.739 7.926-1.221 7.926-2.773 0-.614 1.857-.789 4.75-.449 4.94.581 8.506-.204 8.249-1.815-.082-.515.397-1.118 1.065-1.341.746-.248.921.07.455.825-.591.956-.288.977 1.36.095 1.167-.625 2.121-.901 2.121-.615 0 .287 2.358-.408 5.239-1.544l5.239-2.065-5.239 5.023c-2.881 2.763-5.239 5.462-5.239 5.998 0 .536-.273 1.686-.607 2.556-.334.87-.117 1.582.481 1.582s1.374-1.238 1.723-2.75c.588-2.545 9.731-12.25 11.541-12.25.44 0 .55-.65.245-1.445-.305-.794-2.203-1.612-4.219-1.816l-3.664-.372 3.285-.815c4.314-1.072 3.2-2.048-1.917-1.678-3.381.244-3.991.008-3.707-1.434.336-1.709 1.806-2.829 4.983-3.796 1.414-.43 1.504-1.158.644-5.19-.708-3.319-.672-5.312.124-6.822 1.121-2.127.186-13.882-1.422-17.882-.746-1.854.939-2.482 2.011-.749.34.55 1.086 5.388 1.657 10.75.927 8.696 1.326 9.984 3.691 11.924 1.458 1.197 2.97 1.868 3.359 1.492.39-.376.304-3.544-.19-7.039-.644-4.556-1.47-6.756-2.916-7.769-1.11-.778-1.794-1.999-1.519-2.714.274-.715.091-2.39-.408-3.723-.498-1.332-.548-3.322-.111-4.422.719-1.808.802-1.76.866.509.038 1.381.919 3.04 1.957 3.689 1.039.648 2.66 3.794 3.603 6.99 3.356 11.372 3.199 11.153 7.843 10.914 2.292-.118 4.712.189 5.377.681 1.399 1.036 8.915-4.715 9.846-7.533.318-.963.998-1.75 1.511-1.75 2.537 0 .131 3.536-7.901 11.615C69.121 110.706 63.836 118 66.018 118c.475 0 1.106-.391 1.401-.869.295-.477 2.459-1.181 4.809-1.563 4.043-.657 4.165-.774 2.284-2.166-1.773-1.311-2.125-1.284-3.25.255-1.092 1.493-1.262 1.512-1.262.141 0-.871.675-1.843 1.5-2.16.825-.316 1.5-1.249 1.5-2.071 0-.823.9-1.978 2-2.567 1.414-.757 2-.758 2-.004 0 .587-.675 1.326-1.5 1.642-.825.317-1.5 1.004-1.5 1.528s.419.693.931.377c.512-.317 1.227-.096 1.589.489.442.716 1.054.737 1.865.063.664-.551 2.086-.984 3.161-.962 1.075.022 2.871-.252 3.992-.608 1.804-.573 2.025-.237 1.92 2.923-.113 3.41-.025 3.507 1.962 2.16 1.144-.777 1.971-2.243 1.837-3.26C90.319 104.21 90.207 97 91.034 97c.531 0 .973.787.981 1.75.013 1.496.157 1.532.985.25 1.43-2.213 1.216-3-.815-3-2.323 0-5.407-6.23-4.41-8.908.816-2.191 7.552-7.092 9.747-7.092.789 0 3.818 1.169 6.732 2.599 4.795 2.351 5.704 2.489 9.553 1.453 2.556-.688 3.991-1.57 3.595-2.21-.362-.586-.067-1.431.656-1.878 1.065-.658 1.073-1.101.042-2.344-.7-.843-.982-2.002-.627-2.576.355-.574.136-1.044-.486-1.044-.621 0-.999 1.013-.839 2.25.159 1.237-.06 2.813-.488 3.5-1.129 1.814-2.983 1.535-2.264-.341.336-.875-.291-2.857-1.393-4.404-1.101-1.548-2.003-3.505-2.003-4.35 0-1.933-2.246-3.416-2.774-1.832-.216.647-1.057 1.177-1.868 1.177-.812 0-1.198-.45-.858-1 .34-.55-.309-1-1.441-1-1.132 0-2.059.605-2.059 1.345 0 1.81-3.257 4.655-5.329 4.655-.919 0-1.618.338-1.553.75.411 2.598-.275 4.404-1.494 3.936-.828-.318-1.325.094-1.25 1.035.069.86-.401 1.75-1.045 1.978-.768.272-.972-.347-.593-1.798.538-2.056.319-2.172-3.06-1.623-2.002.325-3.911.15-4.244-.388-.88-1.424 1.496-3.89 3.749-3.89 1.066 0 1.659-.45 1.319-1-.34-.55-.093-1 .548-1s.907-.675.59-1.5c-.83-2.163.623-1.844 2.711.595 2.088 2.438 3.119 1.955 2.175-1.02C92.882 68.053 92.271 68 69.433 68c-12.888 0-23.38.338-23.315.75.47 2.973-.456 5.083-2.675 6.094C39.824 76.493 37 74.793 37 70.965V68H0v60m134.816-57.25c-.304 2.643-.52 2.742-5.566 2.531-4.938-.206-5.25-.076-5.25 2.185 0 1.322-.428 3.529-.95 4.904l-.951 2.499 9.429-.246c5.185-.135 9.711-.529 10.058-.875.346-.347 1.487-.095 2.534.559 1.511.944 2.454.88 4.562-.309 2.461-1.387 4.57-4.395 2.662-3.795-1.045.328-6.654-5.226-5.969-5.911.272-.273 1.525.225 2.783 1.106 2.58 1.807 4.273 2.109 3.338.595-.343-.554.081-1.277.941-1.607 2.525-.969 1.951-4.386-.737-4.386-1.265 0-2.789.489-3.387 1.087-.783.783-1.275.783-1.759 0-.37-.598-3.091-1.087-6.047-1.087-5.119 0-5.389.13-5.691 2.75M158 69.5c1.031 1.242.923 1.503-.628 1.515-1.583.013-1.641.17-.372 1.019 1.311.878 1.28 1.173-.25 2.345-1.763 1.352-2.391 3.623-1 3.619.772-.002 6.25-8.199 6.25-9.353 0-.355-1.18-.645-2.622-.645-2.218 0-2.431.232-1.378 1.5m8.697-.75c-.231.412-.726 2.025-1.099 3.584-.521 2.175-.378 2.646.612 2.025.709-.445 2.123-.672 3.141-.504 1.017.168 2.817-.583 4-1.668 1.609-1.477 2.714-1.757 4.399-1.112 2.774 1.061 2.832 2.089.25 4.425-1.1.995-2 2.384-2 3.085 0 1.776 4.085 2.233 6.522.73 2.102-1.296 6.478-.748 6.478.811 0 .492-.9 1.664-2 2.606s-2 2.031-2 2.42c0 .39-1.35 3.625-3 7.19-3.693 7.98-3.721 9.195-.25 10.897 2.057 1.009 2.705 2.009 2.573 3.972-.118 1.746.973 3.908 3.256 6.457 1.889 2.108 3.319 3.157 3.177 2.332-.199-1.165 1.194-1.612 6.244-2 4.889-.376 6.5-.872 6.5-2 0-.844-.656-1.325-1.5-1.101-5.245 1.396-6.899 1.235-8.168-.796-.722-1.157-2.105-2.103-3.073-2.103-1.078 0-1.759-.756-1.759-1.953 0-2.724-2.003-6.834-3.635-7.461-.751-.288-1.365-.087-1.365.445 0 .533-.675.969-1.5.969s-1.5-.675-1.5-1.5.675-1.5 1.5-1.5c1.048 0 1.5-1.056 1.5-3.5s.452-3.5 1.5-3.5c.825 0 1.5.761 1.5 1.691 0 1.478.191 1.447 1.515-.25 1.431-1.832 1.482-1.773.907 1.059-.334 1.65-.793 3.699-1.02 4.552-.226.854.257 2.429 1.074 3.5 1.224 1.605 1.648 1.702 2.405.551.919-1.397 2.081-1.243 10.869 1.443 1.689.516 2.25.284 2.25-.929 0-.89.525-1.617 1.167-1.617.641 0 .824-.338.405-.75-.419-.412-2.395-.75-4.392-.75-2.739 0-3.722-.456-3.999-1.856-.483-2.431.542-3.263 4.992-4.054 3.127-.555 3.768-.35 4.317 1.379.688 2.168 2.51 2.803 2.51.875 0-.635-1.127-2.633-2.504-4.438-1.412-1.851-2.08-3.545-1.533-3.883.535-.33 1.545.317 2.245 1.438 1.757 2.814 3.427 2.551 4.505-.711 1.018-3.083.619-6.25-.786-6.25-.51 0-.927-.466-.927-1.035 0-.714.601-.714 1.934 0 4.925 2.636 4.022.13-2.184-6.059-2.887-2.879-4.238-4.416-3-3.416 2.325 1.881 3.176.836 1.05-1.29-1.346-1.346-17.8-1.716-17.8-.4 0 .44.54 1.34 1.2 2 .933.933.933 1.2 0 1.2-.66 0-1.2-.505-1.2-1.122 0-.761-.498-.71-1.546.16-.85.705-1.314 1.885-1.031 2.622.283.737.126 1.34-.347 1.34-.474 0-1.132-.704-1.462-1.563-.33-.86-1.017-1.306-1.527-.991-.51.315-1.815-.556-2.901-1.936-1.748-2.223-2.722-2.51-8.521-2.51-3.601 0-6.736.338-6.968.75m18.958.792c.655 1.707 2.499 1.497 3.116-.354.22-.66-.517-1.188-1.656-1.188-1.438 0-1.875.461-1.46 1.542m29.595-.674c.137.477-.787 1.716-2.054 2.752l-2.303 1.885 3.004 1.775c2.877 1.699 3.042 1.699 3.915-.003.501-.977 1.207-3.014 1.569-4.527.584-2.446.379-2.75-1.862-2.75-1.385 0-2.406.39-2.269.868m7.301 4.882c-.874 3.162-2 6.482-2.502 7.377-1.65 2.943-2.2 8.345-1.135 11.148.991 2.605.915 2.72-1.398 2.14-2.15-.54-2.721-.041-4.731 4.141-1.678 3.492-1.953 4.869-1.035 5.183 1.693.579 1.571 1.797-.372 3.74-1.496 1.496-1.477 1.732.25 3.04 1.92 1.454 1.266 1.859-2.628 1.63-.825-.049-.15.529 1.5 1.284 1.897.868 3.225 1.01 3.611.385.336-.543.857-.049 1.156 1.096.67 2.561-.849 3.678-2.799 2.059-1.159-.962-1.586-.831-2.16.664-.636 1.656-.789 1.585-1.374-.637-.557-2.115-.772-2.235-1.393-.778-.778 1.827 1.362 7.778 2.797 7.778.467 0 1.085-.9 1.372-2 .288-1.1.884-2 1.325-2 .441 0 1.423-.238 2.182-.53.878-.337 2.182.972 3.582 3.595 2.596 4.865 2.608 4.935.808 4.935-.766 0-1.671-.726-2.012-1.613-.51-1.329-.888-1.388-2.154-.338-1.229 1.02-1.277 1.442-.238 2.113 1.038.671.998 1.034-.203 1.823-.825.541-1.275 1.022-1 1.067 6.674 1.105 7.176.939 17.077-5.652 5.454-3.631 9.733-6.899 9.508-7.262-.224-.363.213-1.509.972-2.547 1.042-1.424 1.706-1.617 2.707-.787 1 .83 2.606.37 6.531-1.872L256 109.96V68h-31.858l-1.591 5.75M79.028 70.467C77.938 71.78 78.143 72 80.461 72c1.644 0 2.55-.466 2.31-1.187-.621-1.864-2.351-2.024-3.743-.346M117 71c0 1.333.667 2 2 2 2.369 0 2.509-.634.571-2.571C117.634 68.491 117 68.631 117 71m-46.25.757c-1.754.391-2.522 3.243-.872 3.243.999 0 3.613-2.895 3.015-3.34-.216-.161-1.18-.117-2.143.097m163.172 1.098C235.017 74.9 238 77.608 238 76.557c0-1.5-2.029-4.354-3.495-4.917-1.235-.474-1.354-.226-.583 1.215M91.5 75c-.34.55-.141 1 .441 1S93 75.55 93 75s-.198-1-.441-1-.719.45-1.059 1m133.331.25c-2.021 1.628-3.002 4.526-1.787 5.277.526.325.956-.078.956-.895 0-.818 1.186-2.42 2.635-3.559 1.597-1.257 2.066-2.073 1.191-2.073-.794 0-2.142.563-2.995 1.25m-36.113 1.214c-1.599 1.169-1.615 1.362-.161 1.919.888.341 2.28.248 3.092-.207 1.211-.677 1.24-1.023.161-1.918-.961-.798-1.794-.743-3.092.206M65.814 79.483c-1.478 1.271-2.415 2.583-2.084 2.914.332.332.052.603-.622.603s-.948.45-.608 1c1.067 1.726 3.5 1.088 3.5-.917 0-1.177 1.007-2.252 2.61-2.786 2.11-.704 2.349-1.086 1.25-1.998-1.045-.866-1.982-.592-4.046 1.184m94.888-1.798c-.273.448.583 1.624 1.901 2.612s2.397 1.395 2.397.905c0-1.378-3.738-4.437-4.298-3.517m71.298.374c0 .582.45.781 1 .441s1-.816 1-1.059-.45-.441-1-.441-1 .477-1 1.059M39 79c0 .55-.112 1.295-.25 1.655-.138.36.483.762 1.379.893 1.15.169 1.483-.316 1.133-1.654C40.749 77.931 39 77.24 39 79m153.785 2.052c-1.429 2.49-1.439 2.867-.085 3.386 1.035.398 1.347.127.974-.844-.301-.786.136-1.691.971-2.011 2.458-.943 3.355-.682 3.355.976 0 .857.431 1.292.959.966.527-.326 1.857 1.11 2.956 3.191 1.098 2.081 2.016 3.097 2.041 2.257.05-1.743-2.711-6.091-4.604-7.249-.698-.427-1.036-1.384-.751-2.125 1.06-2.764-4.142-1.464-5.816 1.453m40.151 2.321c1.231 1.526 1.235 1.903.029 2.649-.774.478-1.021 1.231-.549 1.674.472.442 1.05.267 1.286-.39.235-.656 1.073-.946 1.863-.643 2.392.918 1.548-1.037-1.346-3.116-2.327-1.672-2.512-1.697-1.283-.174M36.281 89.241c-1.435 5.378-.77 6.174 1.206 1.445 1.69-4.046 1.898-5.686.72-5.686-.437 0-1.303 1.909-1.926 4.241m92.844-3.46c-1.765.602-5.407 4.219-4.247 4.219.482 0 1.437-.675 2.122-1.5 1.683-2.028 4.297-1.887 9.236.5 4.926 2.38 5.381 2.448 3.824.573-1.48-1.784-9.088-4.421-10.935-3.792m69.418.15c-.317.512-.118 1.213.441 1.559.559.345 1.016-.074 1.016-.931 0-1.757-.6-2.015-1.457-.628m-74.73.752c.721.289 1.584.253 1.916-.079.332-.332-.258-.568-1.312-.525-1.165.048-1.402.285-.604.604M44 89c0 1.111.667 2 1.5 2 1.683 0 1.751-.183.893-2.418C45.536 86.347 44 86.616 44 89m71.25-.326c-3.655 2.55-2.572 3.3 1.75 1.212 2.2-1.063 4-2.147 4-2.409 0-1.039-3.627-.284-5.75 1.197m119.883 1.485c-1.093 1.75-1.089 2.252.025 2.95.905.566 1.641.186 2.259-1.167 1.333-2.917-.623-4.443-2.284-1.783m-67.383.146c-4.397.954-4.75 1.256-4.75 4.065 0 2.061 1.029 4.096 3.205 6.342 3.02 3.116 3.107 3.405 1.5 5.011-1.607 1.607-1.705 1.607-1.705-.009 0-.943-.402-1.714-.894-1.714-1.032 0-.909 8.531.139 9.578.384.385 1.158-.509 1.72-1.985.66-1.737 1.64-2.58 2.778-2.389 1.798.303 1.936-.874.987-8.454-.19-1.513.025-2.75.477-2.75 1.034 0 4.784-6.07 4.789-7.75.005-1.419-1.493-1.409-8.246.055m-71.584.571c-1.087.689-1.059.951.152 1.416 1.546.593 2.682-.025 2.682-1.459 0-1.058-1.124-1.041-2.834.043m31.834.747c0 .695-.939 1.921-2.087 2.725l-2.087 1.462 2.067.656c1.137.361 2.863.192 3.837-.375 1.584-.922 1.528-1.033-.539-1.061-1.27-.016-2.067-.422-1.771-.901.916-1.482 6.233-2.089 9.671-1.103 2.482.712 2.994.659 2.115-.22C137.443 91.043 128 90.045 128 91.623M221 91c0 .55.477 1 1.059 1s.781-.45.441-1-.816-1-1.059-1-.441.45-.441 1m-104 1.177c-1.375.578-1.986 1.246-1.359 1.484.628.238 2.653-.226 4.5-1.032 2.352-1.026 2.759-1.471 1.359-1.484-1.1-.01-3.125.455-4.5 1.032m-49.687 1.451c-.402 1.047.229 2.272 1.766 3.432 3.032 2.287 3.513 1.783 1.934-2.028-1.392-3.362-2.751-3.878-3.7-1.404m92.687.313c0 .518.45 1.219 1 1.559.55.34 1-.084 1-.941S161.55 93 161 93s-1 .423-1 .941m63 .61c0 .862.412 1.313.915 1.002.503-.311 1.095-.022 1.317.642.249.749.636.828 1.02.206.34-.55-.252-1.545-1.317-2.209-1.604-1.002-1.935-.941-1.935.359M86.594 96.896c-1.343 1.485-1.431 2.026-.405 2.491.721.327.374.367-.771.09-1.307-.317-2.761.245-3.905 1.509-2.149 2.374-.762 2.694 4.192.967 2.465-.859 2.985-1.576 2.899-3.998-.057-1.623-.147-2.951-.199-2.953-.052-.001-.867.851-1.811 1.894M240.268 100c-1.342 3.416-2.005 4-4.542 4-2.406 0-2.754.261-1.831 1.373.627.756.881 2.047.565 2.871-1.021 2.66 2.344 2.821 4.397.21 1.062-1.349 2.627-2.454 3.478-2.454 2.477 0 3.07-2.081.766-2.684-2.375-.621-2.498-1.14-1.126-4.751.537-1.411.725-2.565.42-2.565-.306 0-1.263 1.8-2.127 4m8.191-1.933c-.363.586-.445 1.281-.183 1.543s.743-.218 1.069-1.067c.676-1.762.1-2.072-.886-.476m-100.931 1.845c-.833 2.626.038 3.922 1.592 2.368.733-.733.766-1.66.103-2.847-.9-1.607-1.046-1.566-1.695.479m-41.714 1.253c-.378.916-.378 2.813 0 4.215.528 1.962 1.032 2.331 2.186 1.6.888-.562 1.016-.956.313-.965-.652-.008-1.327-1.478-1.5-3.265-.221-2.299-.514-2.763-.999-1.585m29.265.418c.048 1.165.285 1.402.604.605.289-.722.253-1.585-.079-1.917-.332-.332-.568.258-.525 1.312m5.921-.642c0 .518.45 1.219 1 1.559.55.34 1-.084 1-.941s-.45-1.559-1-1.559-1 .423-1 .941M111.5 102c-.34.55-.168 1 .382 1s1.278-.45 1.618-1c.34-.55.168-1-.382-1s-1.278.45-1.618 1m-8.796 1.683c-.642 1.057-1.069 8.099-.686 11.317.163 1.375.589-.65.946-4.5.661-7.136.619-8.262-.26-6.817m88.296.199c0 .55.45 1.278 1 1.618.55.34 1 .168 1-.382s-.45-1.278-1-1.618c-.55-.34-1-.168-1 .382m-35.921 1.701c.048 1.165.285 1.402.604.605.289-.722.253-1.585-.079-1.917-.332-.332-.568.258-.525 1.312m-17.104 1.982c-1.271 3.343-1.202 5.429.105 3.185.561-.963 1.617-1.75 2.347-1.75.731 0 1.888-.675 2.573-1.5.86-1.036.898-1.5.122-1.5-.617 0-1.122.45-1.122 1s-.787.964-1.75.921c-1.045-.047-1.247-.282-.5-.583 1.503-.607 1.67-2.338.225-2.338-.563 0-1.463 1.154-2 2.565m14.143 1.685c-.065 2.612.332 4.75.882 4.75 1.126 0 1.126-2.077 0-6.5-.681-2.678-.776-2.49-.882 1.75m66.549-3.583c-1.34 1.339-.579 1.837 3.087 2.017 3.709.183 3.721.171 1.246-1.214-2.888-1.616-3.422-1.715-4.333-.803m-120.588 1.916c.048 1.165.285 1.402.604.605.289-.722.253-1.585-.079-1.917-.332-.332-.568.258-.525 1.312m14.596-.925c-1.052 1.052 1.384 3.342 3.554 3.342 1.399 0 1.806-.467 1.378-1.582-.334-.87-.607-1.77-.607-2 0-.678-3.607-.478-4.325.24M113.5 108c.34.55 1.041 1 1.559 1s.941-.45.941-1-.702-1-1.559-1-1.281.45-.941 1m30.905 1.146c-1.895 2.134-1.893 2.139.345.964 1.238-.649 2.25-1.615 2.25-2.145 0-1.421-.479-1.203-2.595 1.181M109 109.5c.685.825 1.695 1.5 2.245 1.5.558 0 .449-.663-.245-1.5-.685-.825-1.695-1.5-2.245-1.5-.558 0-.449.663.245 1.5m114.25-.687c-3.75.362-3.74.338-1.724 4.237 1.849 3.575 4.217 3.824 5.044.529 1.003-3.998.23-5.108-3.32-4.766m6.207.118c.317.512.118 1.213-.441 1.559-1.312.811-1.326 4.51-.016 4.51.55 0 1-.863 1-1.918s.273-2.63.607-3.5c.34-.885.093-1.582-.559-1.582-.641 0-.907.419-.591.931m-168.101 1.302c-1.035 1.675.681 2.158 2.215.624 1.366-1.365 1.358-1.524-.067-1.524-.876 0-1.842.405-2.148.9M174.5 113c-.995 1.1-2.337 2-2.981 2-1.238 0-5.519 4.137-5.519 5.334 0 .387 1.238.46 2.75.162 2.595-.511 2.619-.485.424.477l-2.326 1.019 2.076 2.639c2.51 3.191 2.994 9.376.576 7.369-1.896-1.574-1.944-.079-.083 2.579.78 1.113 1.75 3.794 2.156 5.957.681 3.63.815 3.761 1.735 1.699 1.176-2.636 2.256-2.836 3.482-.645.489.874 1.187 1.549 1.55 1.5 1.708-.232 1.814.02.614 1.465-1.148 1.384-.996 1.421 1.378.34 1.467-.669 2.668-1.58 2.668-2.024 0-.445.625-.568 1.389-.275 1.027.394 1.325-.27 1.146-2.552-.302-3.843-.618-4.152-4.343-4.258-2.099-.059-2.857-.496-2.496-1.436.596-1.552 4.304-1.854 4.304-.35 0 .55.45 1 1 1s1-.623 1-1.383c0-2.111-3.965-2.686-7.153-1.038-1.566.81-2.847 1.025-2.847.479 0-.547 1.101-1.571 2.447-2.276 1.345-.705 2.437-1.721 2.425-2.257-.012-.536.462-1.136 1.053-1.333.591-.197 1.075.327 1.075 1.166 0 .838.48 1.821 1.067 2.183.64.396.94-.08.75-1.191-.255-1.491.363-1.874 3.183-1.972 6.426-.224 7.338-.373 6.624-1.087-.39-.39-2.49-.581-4.667-.424-2.454.177-3.957-.145-3.957-.85 0-.624.454-.854 1.009-.511 1.414.873 5.144-.45 4.447-1.578-.838-1.355.913-1.134 2.546.322 2.367 2.111-.876-2.196-4.874-6.473l-3.48-3.722-3.171 1.959c-3.669 2.267-4.726 1.77-3.438-1.617 1.16-3.05-.926-3.284-3.539-.397m77.315 1.035c-4.185 2.21-5.678 3.965-3.374 3.965 1.789 0 2.107 2.543.447 3.569-.611.378-1.439.157-1.84-.491-1.47-2.379-4.754-1.34-13.063 4.131-9.034 5.95-10.936 7.733-12.714 11.918-.834 1.964-.82 2.948.056 3.897.915.99.864 1.093-.235.466-1.078-.615-1.275-.298-.843 1.355.311 1.187.189 1.926-.27 1.642-.459-.284-1.129.409-1.488 1.54-.485 1.529-1.209 1.905-2.822 1.467-1.946-.529-1.984-.474-.366.538 1.303.814 2.652.831 4.865.059 1.684-.587 3.493-.8 4.021-.474.527.326 2.051-.433 3.385-1.687 2.687-2.523 3.24-1.537.961 1.716-.805 1.15-1.156 2.399-.78 2.775.376.377-.09.388-1.035.025-1.185-.455-1.72-.162-1.72.941 0 1.096.709 1.491 2.25 1.253 1.238-.191 3.206.277 4.375 1.039 1.908 1.245 2.179 1.179 2.656-.646.405-1.547.05-2.033-1.483-2.033-1.607 0-1.897-.469-1.433-2.316.327-1.305-.047-3.213-.857-4.369-.79-1.129-1.164-2.326-.83-2.659.334-.334.052-1.277-.627-2.095-1.092-1.315-1.502-1.312-3.55.03-1.368.897-2.558 1.126-2.907.561-.642-1.038 4.876-3.349 5.797-2.428.308.309 1.244-.006 2.079-.699 1.258-1.044 1.835-.87 3.359 1.012l1.84 2.273 1.688-2.405c1.625-2.316 1.603-2.432-.585-3.136-1.837-.592-1.71-.66.659-.354 3.062.394 8.952-2.986 7.971-4.574-.286-.463-.092-.841.432-.841s1.211.675 1.528 1.5c.321.839.026 1.5-.671 1.5-.685 0-2.272.719-3.527 1.597-2.177 1.525-2.198 1.664-.472 3.056 1.685 1.358 1.663 1.388-.316.434-1.664-.801-2.477-.633-3.752.776-1.829 2.021-1.239 3.137 1.658 3.137 1.867 0 1.877.108.248 2.595-1.636 2.497-1.612 2.695.635 5.25l2.335 2.655-2.642-2.323c-3.328-2.926-4.652-.708-1.4 2.345 3.209 3.013 3.747 5.221 1.635 6.701-2.702 1.892-2.774 2.367-.71 4.647 1.333 1.474 2.345 1.822 3.469 1.193 1.029-.576 2.623-.352 4.539.639 2.759 1.427 2.827 1.597 1.039 2.597-1.052.589-2.817 1.137-3.922 1.219-1.104.081-1.863.502-1.686.934.478 1.167-7.002 5.416-8.512 4.837-.714-.274-1.05-.901-.745-1.394.304-.492.201-1.457-.23-2.145-.43-.687-.838-1.7-.906-2.25-.069-.55-.193-1.589-.277-2.309-.083-.72-.65-1.001-1.259-.625-.771.477-.696.944.25 1.544.851.539.926.865.201.875-.693.009-.929.885-.59 2.184.456 1.742.23 2.039-1.145 1.511-1.017-.39-1.465-.255-1.102.331.831 1.345-.84 1.256-2.214-.118-.809-.809-1.064-.61-.95.74.088 1.034-.799 2.27-2.016 2.81-1.194.531-2.113 1.742-2.042 2.691.072.95.494 1.503.939 1.228.445-.275.504-1.032.132-1.681-.372-.65-.343-.882.065-.516.408.365 2.35-.427 4.316-1.761 1.966-1.334 3.829-2.172 4.14-1.861.311.311-.097.991-.906 1.511-1.291.83-1.288 1.066.029 1.931 2.056 1.349 3.735 1.258 4.338-.235.321-.796.533-.659.583.378.043.895.76 2.192 1.592 2.883.832.691 1.454 1.758 1.382 2.372-.644 5.461-.405 5.617 8.605 5.617 8.345 0 8.5-.044 8.5-2.441 0-1.343-.45-2.719-1-3.059-.55-.34-.993-1.154-.985-1.809.01-.723.383-.61.951.288.616.974.939-2.013.947-8.75.008-7.113-.342-10.229-1.151-10.229-.862 0-.852-.31.038-1.2.66-.66 1.2-3.36 1.2-6 0-4.043-.299-4.8-1.893-4.8-1.735 0-3.107 1.803-3.107 4.082 0 .505.787.932 1.75.948 3.143.055-1.68 2.242-5.688 2.58-3.139.265-3.324.16-1.562-.879 1.1-.648 2.444-1.191 2.986-1.205 1.27-.034 1.973-3.526.71-3.526-.523 0-1.511.675-2.196 1.5-.685.825-1.92 1.5-2.744 1.5-1.333 0-1.333-.251-.003-2.25.824-1.238 2.197-2.256 3.052-2.263.855-.007 1.923-.416 2.374-.91.48-.524.197-.556-.679-.077-.89.487-1.161.451-.667-.09.458-.5 2.033-.974 3.5-1.053 3.973-.213 4.167-.274 4.167-1.326 0-.532-.675-.709-1.5-.393-.825.317-1.5.078-1.5-.531s.675-1.107 1.5-1.107c1.273 0 1.5-2.5 1.5-16.5 0-9.075-.113-16.48-.25-16.456-.137.025-1.908.92-3.935 1.991M63 114.059c0 .582.45.781 1 .441s1-.816 1-1.059-.45-.441-1-.441-1 .477-1 1.059m97 .441c0 .917.484 1.505 1.075 1.308.591-.197 1.075-.785 1.075-1.308s-.484-1.111-1.075-1.308c-.591-.197-1.075.391-1.075 1.308m-123.532 1.601c-.774 2.439 1.012 4.819 2.499 3.332 1.077-1.077.263-5.433-1.016-5.433-.449 0-1.116.945-1.483 2.101M107 114.882c0 .55.45 1.278 1 1.618.55.34 1 .168 1-.382s-.45-1.278-1-1.618c-.55-.34-1-.168-1 .382m-49.493 1.107c-.35.566.051.734.941.393 1.732-.665 2.049-1.382.611-1.382-.518 0-1.216.445-1.552.989m41.188-.35c-.382.382-.677 2.307-.655 4.278l.04 3.583 1.501-2.766c1.428-2.634.721-6.702-.886-5.095M156 117.441c0 1.407.45 2.559 1 2.559s1-.873 1-1.941-.45-2.219-1-2.559c-.567-.351-1 .49-1 1.941M58.5 118c-.34.55-.141 1 .441 1S60 118.55 60 118s-.198-1-.441-1-.719.45-1.059 1m93.579 1.583c.048 1.165.285 1.402.604.605.289-.722.253-1.585-.079-1.917-.332-.332-.568.258-.525 1.312m40.891.361c1.41 2.635 3.179 3.648 2.371 1.358-.519-1.473-.39-1.574.712-.552.741.688 2.044 1.214 2.897 1.171 1.328-.068 1.337-.162.068-.661-.815-.32-2.085-1.184-2.822-1.921-.736-.736-1.998-1.339-2.803-1.339-1.14 0-1.233.43-.423 1.944m-90.328 1.806c.4 2.136.214 3.25-.543 3.25-.778 0-.649.97.401 3 1.888 3.652 2.759 3.88 1.911.5-.565-2.251-.329-2.5 2.374-2.5 4.408 0 4.926-2.644.673-3.442-1.872-.351-3.858-1.408-4.414-2.348-.763-1.293-.861-.917-.402 1.54m111.859-.25c-.467 1.1-1.447 2.36-2.176 2.8-1.458.88-1.825 3.7-.48 3.7 1.802 0 4.298-3.936 3.911-6.168-.386-2.226-.443-2.241-1.255-.332m-68.297.696c-1.557 1.557 2.715 3.925 4.546 2.519.818-.628 1.25-.592 1.25.104 0 .584-.479 1.359-1.065 1.721-.706.437-.537 1.242.502 2.39.862.953 1.266 2.033.899 2.401-.368.368-.197.669.381.669 1.813 0 2.103-3.662.544-6.881-.824-1.7-1.914-2.834-2.423-2.519-.509.315-1.502.094-2.206-.49-.909-.754-1.612-.73-2.428.086m10.434.304c-.316.825-.139 1.5.393 1.5.533 0 .969-.675.969-1.5s-.177-1.5-.393-1.5c-.216 0-.652.675-.969 1.5M220 122c0 .55.45 1 1 1s1-.45 1-1-.45-1-1-1-1 .45-1 1m-135.305 6.55c-3.672 7.486-3.333 8.373.42 1.1 1.66-3.218 2.851-6.017 2.646-6.222-.204-.205-1.584 2.1-3.066 5.122M175.5 124c.34.55.816 1 1.059 1s.441-.45.441-1-.477-1-1.059-1-.781.45-.441 1m23.959.067c-.363.586-.445 1.281-.183 1.543s.743-.218 1.069-1.067c.676-1.762.1-2.072-.886-.476M205 124c0 .55.45 1 1 1s1-.45 1-1-.45-1-1-1-1 .45-1 1M8.5 125c-.34.55.084 1 .941 1S11 125.55 11 125s-.423-1-.941-1-1.219.45-1.559 1m245.13 1.25c-.838 3.127-.775 5.75.137 5.75.422 0 .814-1.8.872-4 .119-4.542-.14-4.991-1.009-1.75m-201.758.5c-1.243 1.586-1.208 1.621.378.378 1.666-1.307 2.195-2.128 1.372-2.128-.207 0-.995.787-1.75 1.75m7.533.5L57.5 129.5l2.25-1.905c1.237-1.048 2.25-2.06 2.25-2.25 0-.8-.805-.209-2.595 1.905m-4.533.5c-1.243 1.586-1.208 1.621.378.378 1.666-1.307 2.195-2.128 1.372-2.128-.207 0-.995.787-1.75 1.75m65.207-.716c-.043.844 1.29 2.344 2.964 3.332 1.673.989 3.509 2.548 4.08 3.466.915 1.469 1.566 1.177 5.458-2.453 2.43-2.266 4.419-4.369 4.419-4.673 0-1.067-6.153 2.529-6.681 3.904-.803 2.093-4.013 1.669-4.609-.61-.304-1.163-1.364-2-2.533-2-1.106 0-2.237-.562-2.515-1.25-.338-.838-.53-.744-.583.284m-56.615 5.216c-1.345 2.887-2.417 5.925-2.384 6.75.034.825.656-.117 1.384-2.094.728-1.977 2.058-5.014 2.955-6.75.898-1.736 1.375-3.156 1.061-3.156-.315 0-1.672 2.363-3.016 5.25M205.5 128c-.34.55-.141 1 .441 1s1.059-.45 1.059-1-.198-1-.441-1-.719.45-1.059 1m-171.416 3.413c-1.82 1.878-3.134 3.937-2.921 4.577.214.64 1.867-.896 3.675-3.413 3.919-5.458 3.714-5.774-.754-1.164M29 129.393c0 .949 2.993 1.427 3.527.563.325-.526-.336-.956-1.468-.956s-2.059.177-2.059.393m220.5.607c-.34.55-.168 1 .382 1s1.278-.45 1.618-1c.34-.55.168-1-.382-1s-1.278.45-1.618 1m-198.511 3.25c-1.09 1.787-1.983 3.662-1.985 4.167-.005 1.139.137.953 2.782-3.667 2.629-4.593 1.956-5.015-.797-.5m135.49-1.274c1.752 1.937 3.521 1.889 3.521-.094 0-.55-.419-.741-.931-.425-.512.317-1.213.118-1.559-.441-.345-.559-1.121-1.016-1.724-1.016s-.291.889.693 1.976m9.159-.476c-.316.825-.139 1.5.393 1.5.533 0 .969-.675.969-1.5s-.177-1.5-.393-1.5c-.216 0-.652.675-.969 1.5m42.362-.481c0 .605 1.117.751 2.75.359 3.926-.941 4.058-1.378.417-1.378-1.742 0-3.167.459-3.167 1.019m-172.376 1.52c-.965 2.514-.681 3.163.498 1.136.584-1.004.851-2.036.593-2.293-.257-.258-.749.263-1.091 1.157m41.422.547c.614 1.147 1.36 1.841 1.659 1.543.824-.824-.496-3.629-1.709-3.629-.739 0-.724.639.05 2.086m99.368-.874c.955.534 1.999.708 2.321.386.322-.322 1.246.358 2.053 1.51 1.092 1.559 1.668 1.773 2.248.835 1.483-2.401-.128-3.816-4.28-3.759-3.181.044-3.696.27-2.342 1.028m-149.252 2.331c-1.675 3.677-1.355 4.462.456 1.119.846-1.562 1.351-3.026 1.123-3.255-.229-.228-.939.733-1.579 2.136m91.299-.586c2.178 2.407 2.677 2.567 1.93.62-.3-.782-1.273-1.702-2.162-2.043-1.328-.509-1.287-.255.232 1.423m10.539.984c0 2.433 1.164 3.2 3.048 2.008 1.204-.762 1.154-.921-.298-.934-.963-.008-1.75-.432-1.75-.942 0-.509.787-1.132 1.75-1.384 1.317-.344 1.193-.486-.5-.573-1.6-.083-2.25.444-2.25 1.825m-136.364 1.695c-1.45 1.45-2.706 3.813-2.793 5.25a209.44 209.44 0 01-.435 5.614c-.523 5.621.851 20.695 1.761 19.318 1.207-1.827.701-18.818-.561-18.818-.571 0-.488-.52.192-1.2.66-.66 1.2-2.14 1.2-3.289 0-1.148.851-3.758 1.892-5.8 1.041-2.041 1.777-3.711 1.637-3.711-.141 0-1.443 1.186-2.893 2.636m4.642-1.386c-1.499 1.938-2.442 3.75-1.952 3.75.244 0 1.181-1.125 2.082-2.5 1.686-2.573 1.592-3.476-.13-1.25M104 135c0 .55.702 1 1.559 1s1.281-.45.941-1c-.34-.55-1.041-1-1.559-1s-.941.45-.941 1m125.558-.093c-.309.498.34.671 1.441.383 2.335-.611 2.63-1.29.56-1.29-.793 0-1.693.408-2.001.907M71 140c-.674 2.809-.994 5.34-.71 5.623.283.283 1.018-1.832 1.633-4.7 1.456-6.789.672-7.573-.923-.923m123.29-2c-.642 2.453-1.165 2.497-2.995.25-1.318-1.618-1.35-1.599-.431.249.745 1.497.582 2.455-.645 3.811-1.388 1.535-1.423 1.946-.227 2.685 1.689 1.044 3.297.282 2.416-1.144-.344-.556.354-1.697 1.551-2.535 1.196-.838 1.945-2.123 1.664-2.855-.281-.733.027-1.55.683-1.817.831-.338.785-.51-.15-.565-.739-.043-1.579.821-1.866 1.921m28.217-1.011c-.35.566.051.734.941.393 1.732-.665 2.049-1.382.611-1.382-.518 0-1.216.445-1.552.989M28.21 139.438c-1.464 3.215-1.086 4.322.73 2.134.674-.812 1.074-2.259.89-3.215-.257-1.334-.634-1.082-1.62 1.081m98.783-.93c-1.044 1.258-.827 1.492 1.385 1.492 2.699 0 3.593 1.486 1.372 2.28-.687.246.464 1.28 2.559 2.297 3.294 1.6 3.934 1.652 4.735.386.733-1.16.929-1.013.941.705.019 2.731.993 5.332 1.997 5.332.422 0 1.045-1.387 1.385-3.083.339-1.695 1.632-3.936 2.875-4.98 1.933-1.624 2.042-2.041.758-2.901-2.037-1.365-2.998-1.287-2.633.214.168.688.116.912-.114.5-.816-1.458-3.254-.726-3.332 1-.043.963-.29 1.235-.548.606-.258-.629-1.273-.933-2.257-.676-1.009.264-3.116-.65-4.836-2.098-2.655-2.234-3.209-2.372-4.287-1.074M162 139.924c0 .474.675 1.121 1.5 1.438.825.316 1.5.187 1.5-.286 0-.474-.675-1.121-1.5-1.438-.825-.316-1.5-.187-1.5.286m69 .545c0 .892.587 1.243 1.494.895.822-.316 1.246-.976.941-1.469-.872-1.412-2.435-1.044-2.435.574m-195.455 1.39c-1.115 3.513 1.528 7 2.797 3.692.391-1.02.053-1.282-1.143-.886-.934.309-.349-.597 1.301-2.015l3-2.578-2.683-.036c-1.757-.024-2.886.605-3.272 1.823m80.122-.192c-1.047 1.047-.779 2.52.333 1.833.55-.34 1 .069 1 .91 0 .947-.57 1.308-1.5.952-1.715-.658-1.983 1.356-.485 3.638.876 1.333 1.094 1.333 1.97 0 .541-.825.991-1.122 1-.661.008.461 1.4-.326 3.092-1.75 1.692-1.424 3.942-2.589 5-2.589 1.058 0 1.923-.398 1.923-.883 0-1.477-4.193-2.084-6.364-.922-1.497.801-2.142.787-2.422-.052-.417-1.253-2.492-1.531-3.547-.476M53.638 143.5c-.316.825-.139 1.5.393 1.5.533 0 .969-.675.969-1.5s-.177-1.5-.393-1.5c-.216 0-.652.675-.969 1.5m6.425 1.45c-.043 2.368.26 3.127.967 2.42.683-.683.704-1.848.064-3.45-.909-2.274-.971-2.212-1.031 1.03M147 143.933c0 .513-.858 1.205-1.908 1.538-1.049.333-2.193 1.35-2.543 2.261-.58 1.513-.481 1.52 1.158.08.986-.866 2.812-1.886 4.058-2.266 1.245-.379 2.006-1.108 1.691-1.618-.745-1.204-2.456-1.201-2.456.005m13-.367c0 .394 1.35 2.008 3 3.584 1.65 1.577 2.975 2.301 2.945 1.609-.058-1.311-5.945-6.454-5.945-5.193m14.697.184c-1.102 1.965-1.634 6.25-.775 6.25 1.188 0 1.622-.751 2.459-4.25.592-2.476-.614-3.907-1.684-2M209 144c0 .55-.338.887-.75.75s-.75.2-.75.75.338.887.75.75.75.844.75 2.18c0 1.726-.653 2.557-2.25 2.864-1.929.372-1.858.453.5.57 2.032.1 2.75-.334 2.75-1.664 0-.99.465-2.265 1.033-2.833.568-.568.745-1.783.393-2.7-.695-1.811-2.426-2.287-2.426-.667m3 .059c0 .582.45.781 1 .441s1-.816 1-1.059-.45-.441-1-.441-1 .477-1 1.059m25-.059c0 .55-.627 1-1.393 1-2.011 0-2.73 2.653-1.089 4.015 1.125.934 1.527.654 2.049-1.427.357-1.423 1.051-2.588 1.541-2.588.491 0 .892-.45.892-1s-.45-1-1-1-1 .45-1 1m-221.272 3.033c-1.147 2.575-1.752 8.54-2.233 21.998-.362 10.156-.414 18.222-.116 17.923.299-.299.989-8.776 1.534-18.838.577-10.662 1.462-18.862 2.121-19.657.622-.75.937-2.172.699-3.161-.329-1.368-.808-.953-2.005 1.735m10.957-2.385c-.797.797-.832 32.92-.039 36.077.709 2.827 1.22 2.83 4.375.02 1.387-1.235 2.084-1.907 1.55-1.495-.534.412-1.842.75-2.906.75-1.729 0-1.672-.207.537-1.944 1.575-1.239 2.38-2.782 2.218-4.25a103.914 103.914 0 01-.337-3.615c-.045-.72-.497-1.053-1.003-.74-.506.312-.905-.898-.887-2.691.018-1.793-.052-3.485-.157-3.76-.104-.275-.312-1.85-.462-3.5-.48-5.288-1.753-14.992-2.001-15.25-.132-.137-.531.042-.888.398m140.315.53c0 .867.709 2.166 1.576 2.885 1.307 1.084 1.732 1.063 2.485-.127 1.327-2.097 1.137-3.226-.439-2.621-.758.291-1.883.024-2.5-.593-.829-.829-1.122-.71-1.122.456m-121.49.838c.346.559 1.047.758 1.559.441 1.387-.857 1.129-1.457-.628-1.457-.857 0-1.276.457-.931 1.016m105.157-.349c-.367.366-.653 1.379-.637 2.25.025 1.3.221 1.257 1.092-.242 1.077-1.852.765-3.228-.455-2.008m-117.485 3.24c-.917 2.63-.805 3.224.76 4.062 1.535.821 1.922.537 2.374-1.744.313-1.579-.007-3.287-.76-4.061-1.077-1.108-1.484-.809-2.374 1.743m19.055-.744c-.68.68-1.237 1.918-1.237 2.751 0 1.311.218 1.297 1.616-.101.889-.889 1.446-2.128 1.238-2.752-.274-.82-.723-.792-1.617.102m91.712 2.087c-3.19 4.271-6.187 9.845-5.606 10.426.254.255 1.278-.919 2.275-2.607.997-1.688 2.166-3.069 2.598-3.069.431 0 .784-.614.784-1.364 0-.75 1.186-2.55 2.636-4 1.755-1.754 2.152-2.636 1.188-2.636-.796 0-2.54 1.463-3.875 3.25m57.613-1.72c-1.066.806-2.081 2.398-2.255 3.538-.251 1.648.146 2.007 1.939 1.752 1.785-.253 2.275-.996 2.354-3.57.055-1.787.055-3.236 0-3.218-.055.017-.972.691-2.038 1.498m-136.483 1.053c.048 1.165.285 1.402.604.605.289-.722.253-1.585-.079-1.917-.332-.332-.568.258-.525 1.312m39.953 1.096c-.018 1.748.675 3.885 1.539 4.75 1.689 1.689 2.882 2.113 2.02.718-.29-.469.119-1.706.909-2.75 1.938-2.559 1.855-3.617-.25-3.184-.963.198-2.298-.332-2.968-1.177-1.025-1.293-1.223-1.032-1.25 1.643m45.593 1.3c-1.899 4.746-2.019 6.021-.566 6.021.582 0 .781-.45.441-1s-.192-1 .33-1c.976 0 2.645-6.859 1.86-7.644-.242-.241-1.171 1.389-2.065 3.623m32.941-2.872c.469.759-.064.881-1.691.388-1.792-.543-2.103-.433-1.27.448.654.69 2.187.896 3.75.504 3.131-.786 3.529-2.447.586-2.447-1.251 0-1.79.435-1.375 1.107M16.73 161c-.392 6.325-1.007 14.988-1.368 19.25-.575 6.801-.453 7.75.995 7.75 1.196 0 1.581-.758 1.397-2.75-.14-1.512.069-7.25.463-12.75s.381-12.925-.03-16.5l-.746-6.5-.711 11.5m52.908-9.5c-.316.825-.139 1.5.393 1.5.533 0 .969-.675.969-1.5s-.177-1.5-.393-1.5c-.216 0-.652.675-.969 1.5m149.466-.766c-3.902.476-6.888 2.882-5.411 4.359.619.619 1.888.238 3.543-1.064 1.419-1.116 3.044-2.029 3.613-2.029.568 0 1.311-.45 1.651-1 .34-.55.479-.928.309-.84-.17.088-1.837.346-3.705.574m-71.15 2.352c-.614 1.147-.928 2.274-.697 2.504.23.23.932-.708 1.559-2.086 1.378-3.024.707-3.35-.862-.418M183.5 153c-.34.55-.168 1 .382 1s1.278-.45 1.618-1c.34-.55.168-1-.382-1s-1.278.45-1.618 1m-151.655 4.766c-.489 6.712.074 10.234 1.636 10.234.961 0 1.445-1.896 1.684-6.601.271-5.348.021-6.769-1.32-7.484-1.413-.754-1.705-.192-2 3.851m187.897-4.106c.907.366.963 1.023.207 2.436-1.338 2.5 1.42 3.779 4.288 1.988 1.675-1.046 2.19-.919 3.424.842 1.963 2.803 5.896 2.625 9.529-.433 1.639-1.378 3.504-2.239 4.145-1.913.641.326.04-.335-1.335-1.47-3.105-2.562-4.554-2.166-4.321 1.182.138 1.99-.264 2.54-1.775 2.426-1.074-.081-1.746-.688-1.492-1.35.254-.661-.154-1.439-.907-1.728-.93-.357-1.248.097-.994 1.418.485 2.516.143 2.452-3.134-.584-2.074-1.922-2.928-2.222-3.57-1.25-.652.986-1.078.878-1.875-.474-.567-.963-1.572-1.714-2.232-1.671-.889.058-.878.209.042.581m-99.084 2.015c-.362.362-.658 1.108-.658 1.658 0 .55.296.704.658.342.362-.362 1.262-.156 2 .456.993.824 1.342.809 1.342-.059 0-.646 1.505-.026 3.344 1.377 1.84 1.403 3.752 2.544 4.25 2.536.498-.009.231-.452-.594-.985-1.055-.682-1.118-.974-.215-.985.948-.011 1.021-.509.278-1.897-1.043-1.949-7.063-3.502-7.063-1.822 0 .522-.604.448-1.342-.165-.738-.612-1.638-.818-2-.456m10.342.297c0 1.356 1.777 2.198 2.425 1.149.31-.501-.109-1.169-.931-1.485-.822-.315-1.494-.164-1.494.336m-89.476 1.278c-.864 2.617-1.277 8.785-.615 9.194.38.235.713-.557.741-1.759.027-1.202.303-3.648.612-5.435.552-3.185.078-4.47-.738-2M64 157c0 .55.477 1 1.059 1s.781-.45.441-1-.816-1-1.059-1-.441.45-.441 1m48.612.569c-.41 1.069-1.268 1.358-2.693.905-1.883-.597-1.976-.449-.935 1.496.955 1.785 1.417 1.942 2.662.909 1.192-.989 1.666-.993 2.268-.017.582.941 1.066.867 2.047-.315 1.026-1.236 1.034-1.848.039-3.047-1.595-1.922-2.632-1.901-3.388.069m49.388.872c0 2.919 1.544 4.19 2.395 1.971 1.026-2.674.674-4.412-.895-4.412-.924 0-1.5.938-1.5 2.441m10 .059c0 .825.436 1.5.969 1.5.532 0 .709-.675.393-1.5-.317-.825-.753-1.5-.969-1.5-.216 0-.393.675-.393 1.5m5-.559c0 .518.45 1.219 1 1.559.55.34 1-.084 1-.941s-.45-1.559-1-1.559-1 .423-1 .941m3.733.183c.679.684 1.486.991 1.793.683.308-.308-.247-.867-1.233-1.243-1.425-.542-1.54-.428-.56.56m5.837 3.376c-1.037 1.925-2.334 3.5-2.882 3.5-.549 0-.322-.787.505-1.75 2.715-3.161 3.061-4.281 1.109-3.583-6.208 2.218-5.706 7.333.721 7.333 1.022 0 2.167.498 2.543 1.107.467.756-.038.878-1.592.385-1.888-.599-2.163-.426-1.611 1.012.549 1.43.217 1.649-1.89 1.246-2.055-.393-2.851.079-4.052 2.403-2.267 4.384-.891 5.644 4.794 4.388 3.616-.798 4.517-1.363 3.862-2.42-.72-1.163-1.332-1.141-3.901.141-2.553 1.274-3.131 1.297-3.575.141-.291-.759-.208-1.331.185-1.273 1.978.295 2.328-.291 1.086-1.822-.801-.988-.877-1.395-.183-.978.654.392 2.928.435 5.052.095 3.57-.57 3.881-.883 4.099-4.123.13-1.928-.343-4.247-1.052-5.154-1.15-1.471-1.101-1.501.462-.276 2.19 1.718 2.456-.308.321-2.443-1.903-1.904-1.844-1.935-4.001 2.071m-19.427-1.61c-1.142.724-1.142.987 0 1.663.746.441 2.337 1.428 3.535 2.193 1.973 1.259 2.295 1.171 3.414-.928 1.124-2.108 1.085-2.194-.428-.946-1.329 1.096-1.964 1.124-3.153.137-.819-.68-1.242-1.635-.941-2.122.694-1.123-.652-1.121-2.427.003m82.495.61c-.316.825-.139 1.5.393 1.5.533 0 .969-.675.969-1.5s-.177-1.5-.393-1.5c-.216 0-.652.675-.969 1.5m-206.559 1.083c.048 1.165.285 1.402.604.605.289-.722.253-1.585-.079-1.917-.332-.332-.568.258-.525 1.312m103.995-.172c-.691.833-.788 1.648-.236 1.989.514.318 1.169-.317 1.455-1.411.616-2.357.358-2.479-1.219-.578M7.252 164.5c.011 2.2.216 2.982.455 1.738.239-1.244.23-3.044-.02-4s-.446.062-.435 2.262m151.332-.977c-.375 1.492-.434 2.96-.133 3.262.302.301.549-.164.549-1.035 0-.871.436-1.733.968-1.917.551-.19.608-.912.132-1.678-.609-.981-1.02-.61-1.516 1.368m37.416-.901c0 1.329.271 1.398 1.5.378.825-.685 1.5-1.415 1.5-1.622 0-.208-.675-.378-1.5-.378s-1.5.73-1.5 1.622m15.5-.622c-.34.55-.115 1 .5 1s.797.52.405 1.155c-.443.715-.275.883.44.44.635-.392 1.155-.21 1.155.405s.518.798 1.151.406c.813-.502.671-1.063-.484-1.908-.9-.657-1.343-1.489-.985-1.847.358-.358.153-.651-.456-.651-.61 0-1.386.45-1.726 1M36 164.441c0 1.407.45 2.559 1 2.559s1-.873 1-1.941-.45-2.219-1-2.559c-.567-.351-1 .49-1 1.941m199.571-1.555c-.301.487.576 1.1 1.949 1.363 2.021.386 2.282.217 1.366-.886-1.303-1.571-2.53-1.747-3.315-.477M114.5 164c.34.55 1.068 1 1.618 1s.722-.45.382-1c-.34-.55-1.068-1-1.618-1s-.722.45-.382 1m22.313-.317c.721.289 1.584.253 1.916-.079.332-.332-.258-.568-1.312-.525-1.165.048-1.402.285-.604.604m91.823.811c.316.822.976 1.246 1.469.941 1.412-.872 1.044-2.435-.574-2.435-.892 0-1.243.587-.895 1.494m-165.072 1.213c-.542 1.425-.428 1.54.56.56.684-.679.991-1.486.683-1.793-.308-.308-.867.247-1.243 1.233m66.169-.583c.679.684 1.486.991 1.793.683.308-.308-.247-.867-1.233-1.243-1.425-.542-1.54-.428-.56.56m14.873.292c.335.871 1.047 1.584 1.584 1.584 1.315 0 .492-2.273-1.003-2.771-.731-.244-.954.214-.581 1.187M203 165.14c0 .627-.787 1.765-1.75 2.529-1.612 1.28-1.562 1.368.641 1.11 2.721-.318 5.127-4.779 2.577-4.779-.808 0-1.468.513-1.468 1.14m16.667.527c-.992.991-.807 4.333.239 4.333.499 0 .67-.907.38-2.015-.405-1.549-.153-1.871 1.093-1.393.893.343 1.621.125 1.621-.485 0-1.209-2.265-1.508-3.333-.44m32.333.302c0 .532.675.709 1.5.393.825-.317 1.5-.753 1.5-.969 0-.216-.675-.393-1.5-.393s-1.5.436-1.5.969m-91.333.698c-.903.903-.846 4.105.083 4.677.412.253.844-.845.96-2.441.218-3.025.068-3.347-1.043-2.236m-50.638 1.294c-.809.512-1.211 1.191-.893 1.509.319.318 1.148-.108 1.844-.946 1.443-1.738 1.166-1.902-.951-.563m61.799 1.406c-1.579 2.174-1.565 2.381.25 3.689 1.057.762 1.922 1.961 1.922 2.665 0 .703.73 1.279 1.622 1.279 1.265 0 1.371-.304.479-1.378-.898-1.082-.71-1.491.878-1.906 2.974-.778 2.618-4.539-.544-5.741-3.134-1.191-2.619-1.347-4.607 1.392M214 168c-.901.582-1.025.975-.309.985.655.008 1.469-.435 1.809-.985.767-1.242.421-1.242-1.5 0m25.694-.361c-.766.767.084 2.361 1.258 2.361.459 0 1.093-.675 1.41-1.5.57-1.487-1.405-2.124-2.668-.861m-203.615 1.08c-.047.719-.764.955-1.753.576-1.346-.517-1.513-.266-.855 1.281.45 1.058.849 2.711.888 3.674.038.963.471 1.75.962 1.75s.625.698.297 1.552c-.331.864-.17 1.289.364.959 1.302-.804 2.383 3.898 1.607 6.989-.345 1.375-.195 2.5.333 2.5 2.017 0 2.152-2.225.472-7.763-.957-3.155-1.632-6.345-1.5-7.087.155-.874-.225-1.071-1.077-.558-1.055.634-1.049.461.028-.866.739-.913 1.112-2.236.828-2.942-.376-.938-.536-.956-.594-.065m4.478.189c-.308.499-.139 1.961.378 3.25.639 1.596.958 1.811 1.002.674.034-.918.336-2.38.67-3.25.639-1.665-1.087-2.233-2.05-.674m99.073 1.342c-.903 3.371-.698 4.472.462 2.479.567-.974 1.453-1.51 1.969-1.191.517.319.939.077.939-.538s.43-.852.956-.527c1.027.634.292 3.61-.801 3.245-.36-.12-.801.221-.98.757-.654 1.963 1.38 1.467 2.709-.661 1.223-1.957 1.13-2.384-.869-4.003-2.913-2.358-3.655-2.284-4.385.439m57.962.25c1.829 2.792 2.321 3.093 2.041 1.25-.286-1.89-1.633-3.75-2.715-3.75-.53 0-.227 1.125.674 2.5m-177.434.5c0 1.375.227 1.938.504 1.25.278-.687.278-1.812 0-2.5-.277-.687-.504-.125-.504 1.25m23.293-.393c-.329 1.041-1.014 2.674-1.524 3.629-1.278 2.393-1.167 9.497.16 10.318 2.263 1.399 3.389-1.653 3.075-8.336-.338-7.202-.767-8.608-1.711-5.611M248 169.995c0 .37.563.689 1.25.711.688.022 1.7.15 2.25.285 1.87.459 3.5.012 3.5-.961 0-.533-1.575-.91-3.5-.838-1.925.073-3.5.434-3.5.803m-195.617 2.756c.297 1.512.827 5.224 1.176 8.249.35 3.025.844 5.838 1.098 6.25.802 1.305 2.303.81 1.769-.583-.287-.746.149-1.334.987-1.334.824 0 1.286.344 1.027.765-.26.42.056 1.09.701 1.489.836.517.977.032.492-1.681a106.508 106.508 0 01-1.282-5.156c-.331-1.512-.981-2.75-1.445-2.75-.464 0-.602.629-.306 1.399.295.769.148 1.639-.327 1.932-1.052.65-1.057-3.369-.007-5 .414-.644.095-1.827-.709-2.631-.804-.804-1.239-1.685-.966-1.957.272-.273-.235-.776-1.127-1.118-1.322-.508-1.522-.114-1.081 2.126m21.92-1.959c-.697.443-.86 1.307-.389 2.069.599.97.95.769 1.354-.776.299-1.147.474-2.078.388-2.07-.086.009-.695.358-1.353.777M245 171c0 .55.477 1 1.059 1s.781-.45.441-1-.816-1-1.059-1-.441.45-.441 1m-181.921 1.583c.048 1.165.285 1.402.604.605.289-.722.253-1.585-.079-1.917-.332-.332-.568.258-.525 1.312m4.087.293c-1.074.681-1.025.964.25 1.453 1.002.385 1.584.069 1.584-.86 0-1.7-.058-1.719-1.834-.593m146.834.195c0 2.005 2.461 3.742 3.528 2.49 1.871-2.193 1.476-3.561-1.028-3.561-1.375 0-2.5.482-2.5 1.071m-166.43 5.218c-.364 2.91-.219 6.397.321 7.75.776 1.943.996.831 1.046-5.289.034-4.262-.11-7.75-.322-7.75-.211 0-.682 2.38-1.045 5.289m193.448-2.823c-.726 1.356-1.696 2.233-2.157 1.948-.461-.285-.544.25-.183 1.188.584 1.523.851 1.463 2.488-.559 1.009-1.245 1.834-2.89 1.834-3.654 0-1.99-.48-1.729-1.982 1.077M153 175.5c0 .825.177 1.5.393 1.5.216 0 .652-.675.969-1.5.316-.825.139-1.5-.393-1.5-.533 0-.969.675-.969 1.5m42.733-.376c.679.684 1.486.991 1.793.683.308-.308-.247-.867-1.233-1.243-1.425-.542-1.54-.428-.56.56M65.492 178.25c1.26 6.289 2.677 9.75 3.992 9.75 1.289 0 1.183-2.401-.266-6-.332-.825-.65-2.175-.708-3-.057-.825-.629-1.393-1.271-1.262-.659.134-.918-.41-.596-1.25.314-.818.037-1.488-.615-1.488-.806 0-.978 1.044-.536 3.25M114 176c0 .55.477 1 1.059 1s.781-.45.441-1-.816-1-1.059-1-.441.45-.441 1m-40 1.441c0 .857.45 1.559 1 1.559s1-.423 1-.941-.45-1.219-1-1.559c-.55-.34-1 .084-1 .941m19-.559c0 .55.45 1.278 1 1.618.55.34 1 .168 1-.382s-.45-1.278-1-1.618c-.55-.34-1-.168-1 .382m46.599.722c-.381.99-1.24 1.364-2.249.977-1.237-.475-1.377-.319-.576.646.581.7 1.132 1.723 1.224 2.273.253 1.503 1.002 2.001 1.002.667 0-2.415.168-2.685 2.124-3.409 1.102-.407 1.724-1.195 1.381-1.75-.921-1.489-2.207-1.226-2.906.596m19.401-.295c0 1.772 2.685 5.339 3.446 4.578.87-.87-1.194-5.887-2.421-5.887-.564 0-1.025.589-1.025 1.309m89.666-.578c-.294.476-.121 1.518.385 2.317 1.437 2.271 1.172 2.657-2.301 3.357-2.552.514-2.928.86-1.75 1.61 1.088.692 1.14.959.191.97-.72.008-.995.523-.612 1.143.477.772.986.614 1.609-.5 1.145-2.045 4.812-2.143 4.812-.128 0 .825.398 1.5.884 1.5 1.342 0 .606-5.704-.984-7.62-.77-.928-1.25-1.881-1.067-2.117.184-.236.116-.647-.15-.913-.265-.266-.723-.094-1.017.381M226 178c-.793.49-1.11 1.223-.704 1.629.405.406 1.262.213 1.904-.429 1.511-1.511.668-2.354-1.2-1.2m16.667-.333c-.367.366-.667 1.352-.667 2.191 0 1.338.153 1.332 1.25-.052.688-.867 1.925-1.817 2.75-2.112 1.03-.368.847-.561-.583-.615-1.146-.043-2.384.221-2.75.588m-45.905 2.298c-.926 1.081-1.293 2.207-.816 2.501.476.295.632 1.43.346 2.524-.285 1.093-.988 1.698-1.56 1.344-.604-.373-.742-.159-.327.511.392.635 2.022 1.155 3.623 1.155 2.347 0 2.786-.338 2.271-1.75-.597-1.637-.514-1.643 1.281-.093 1.446 1.247 3.842 1.644 9.7 1.605 4.279-.028 8.048-.484 8.375-1.013.344-.557.949-.391 1.434.394.685 1.109 1.154 1.041 2.565-.369.95-.95 1.392-2.062.982-2.471-.41-.41-1.12-.138-1.579.604-.466.754-1.373 1.016-2.057.593-.684-.423-1.591-.161-2.057.593-.459.742-1.169 1.014-1.578.605-.41-.409.249-1.439 1.462-2.289 2.812-1.97 1.944-3.387-2.136-3.488-1.755-.043-2.626-.307-1.935-.585 2.225-.897.424-2.016-2.543-1.581-2.229.328-3.167 1.23-4.175 4.016-1.081 2.989-1.487 3.339-2.418 2.081-.827-1.115-1.895-1.302-4.08-.712-2.007.542-3.209.407-3.734-.42-1.298-2.043-.896-3.04.694-1.72 1.036.86 1.5.898 1.5.122 0-.617-.505-1.122-1.122-1.122-.776 0-.738-.464.122-1.5.685-.825.84-1.5.345-1.5s-1.658.884-2.583 1.965M9.272 183c0 2.475.195 3.488.434 2.25.238-1.238.238-3.262 0-4.5-.239-1.238-.434-.225-.434 2.25m12.728.5c0 2.947.434 4.5 1.257 4.5.877 0 1.149-1.363.9-4.5-.197-2.475-.763-4.5-1.258-4.5-.494 0-.899 2.025-.899 4.5m189.29-1.5c.287 1.1.04 2-.55 2-.59 0-.736.338-.323.75.412.412 1.05.639 1.416.504 1.025-.379.883-5.254-.153-5.254-.502 0-.678.9-.39 2m19.71.364c-5.954 2.862-5.991 5.136-.083 5.136 3.962 0 4.514-.292 5.362-2.838 1.367-4.101-.152-4.763-5.279-2.298m-96 .077c0 .857.45 1.559 1 1.559s1-.423 1-.941-.45-1.219-1-1.559c-.55-.34-1 .084-1 .941m91.813-.758c.721.289 1.584.253 1.916-.079.332-.332-.258-.568-1.312-.525-1.165.048-1.402.285-.604.604m-122 1c.721.289 1.584.253 1.916-.079.332-.332-.258-.568-1.312-.525-1.165.048-1.402.285-.604.604m-76.058 1.395c-2.367 1.378-.371 3.513 3.148 3.366 1.928-.081 2.686-.72 2.943-2.479.316-2.161.189-2.242-1.442-.917-1.093.888-1.496.966-1.037.202.91-1.514-1.141-1.612-3.612-.172M175.5 184c-.34.55.084 1 .941 1s1.559-.45 1.559-1-.423-1-.941-1-1.219.45-1.559 1m11.5-.082c0 .505-.295 1.743-.656 2.75-.493 1.377-.12 1.235 1.5-.571 2.561-2.854 2.612-3.097.656-3.097-.825 0-1.5.413-1.5.918m-81 .901c0 1.208 1.897 2.617 2.591 1.924.251-.252-.229-1.027-1.067-1.723-.95-.789-1.524-.865-1.524-.201m10.5.181c-.34.55-.141 1 .441 1s1.059-.45 1.059-1-.198-1-.441-1-.719.45-1.059 1m41.692.746c.412 2.123 2.423 2.701 3.116.895.341-.89-.21-1.644-1.435-1.964-1.437-.376-1.904-.079-1.681 1.069m78.446.754c-.316.825-.139 1.5.393 1.5.533 0 .969-.675.969-1.5s-.177-1.5-.393-1.5c-.216 0-.652.675-.969 1.5m-116.87.668c.582.582 1.647.86 2.369.62.749-.25.295-.703-1.057-1.057-1.663-.435-2.054-.305-1.312.437" fill="#1976D2" fill-rule="evenodd"/></svg>